<svg width="622" height="394" viewBox="0 0 622 394" fill="none" xmlns="http://www.w3.org/2000/svg">
<rect y="2" width="622" height="392" rx="20" fill="#FB9D24"/>
<rect x="19.8934" y="56.5708" width="578.235" height="323.787" rx="20" fill="#F0F0E8"/>
<path d="M591.093 24.366V14.1154H580.842L585.058 18.3309L572.244 31.1442L568.029 26.9286V37.1792H578.28L574.064 32.9637L586.877 20.1504L591.093 24.366Z" fill="white"/>
<text fill="white" xml:space="preserve" style="white-space: pre" font-family="Roboto Flex" font-size="24" font-weight="600" letter-spacing="0.5px"><tspan x="37.1557" y="40.6602">Commit Frequency</tspan></text>
<g clip-path="url(#clip0_546_547)">
<rect x="83.8934" y="110.309" width="344" height="43" rx="5" fill="#D9D9D9"/>
<rect x="27.8934" y="322.309" width="160" height="56" rx="5" transform="rotate(-90 27.8934 322.309)" fill="#D9D9D9"/>
<text fill="black" xml:space="preserve" style="white-space: pre" font-family="Roboto Mono" font-size="14" font-weight="500" letter-spacing="0em"><tspan x="34.8934" y="183.485">Janni</tspan></text>
<text fill="black" xml:space="preserve" style="white-space: pre" font-family="Roboto Mono" font-size="14" font-weight="500" letter-spacing="0em"><tspan x="34.8934" y="224.485">Panni</tspan></text>
<text fill="black" xml:space="preserve" style="white-space: pre" font-family="Roboto Mono" font-size="14" font-weight="500" letter-spacing="0em"><tspan x="34.8934" y="265.485">Danni</tspan></text>
<text fill="black" xml:space="preserve" style="white-space: pre" font-family="Roboto Mono" font-size="14" font-weight="500" letter-spacing="0em"><tspan x="34.8934" y="306.485">Wanni</tspan></text>
<path d="M93.8934 178.809C93.8934 167.763 102.848 158.809 113.893 158.809H401.893C412.939 158.809 421.893 167.763 421.893 178.809V307.809C421.893 318.854 412.939 327.809 401.893 327.809H113.893C102.848 327.809 93.8934 318.854 93.8934 307.809V178.809Z" fill="white"/>
<g clip-path="url(#clip1_546_547)">
<text fill="black" xml:space="preserve" style="white-space: pre" font-family="Roboto Mono" font-size="14" font-weight="500" letter-spacing="0em"><tspan x="100.393" y="127.747">Mar &#10;</tspan><tspan x="100.393" y="147.747">31st</tspan></text>
<text fill="black" xml:space="preserve" style="white-space: pre" font-family="Roboto Mono" font-size="14" font-weight="500" letter-spacing="0em"><tspan x="158.393" y="127.747">Apr &#10;</tspan><tspan x="158.393" y="147.747">7th</tspan></text>
<text fill="black" xml:space="preserve" style="white-space: pre" font-family="Roboto Mono" font-size="14" font-weight="500" letter-spacing="0em"><tspan x="216.393" y="127.747">Apr &#10;</tspan><tspan x="216.393" y="147.747">14th</tspan></text>
<text fill="black" xml:space="preserve" style="white-space: pre" font-family="Roboto Mono" font-size="14" font-weight="500" letter-spacing="0em"><tspan x="274.393" y="127.747">Apr &#10;</tspan><tspan x="274.393" y="147.747">21st</tspan></text>
<text fill="black" xml:space="preserve" style="white-space: pre" font-family="Roboto Mono" font-size="14" font-weight="500" letter-spacing="0em"><tspan x="332.393" y="127.747">Apr &#10;</tspan><tspan x="332.393" y="147.747">28th</tspan></text>
<text fill="black" xml:space="preserve" style="white-space: pre" font-family="Roboto Mono" font-size="14" font-weight="500" letter-spacing="0em"><tspan x="390.393" y="127.747">May &#10;</tspan><tspan x="390.393" y="147.747">5th</tspan></text>
<rect x="104.393" y="164.309" width="28" height="28" rx="5" fill="#90E0EF"/>
<rect x="160.793" y="164.309" width="28" height="28" rx="5" fill="#0077B6"/>
<rect x="217.193" y="164.309" width="28" height="28" rx="5" fill="#E0DCBE"/>
<rect x="273.593" y="164.309" width="28" height="28" rx="5" fill="#90E0EF"/>
<rect x="329.993" y="164.309" width="28" height="28" rx="5" fill="#0077B6"/>
<rect x="386.393" y="164.309" width="28" height="28" rx="5" fill="#0077B6"/>
<rect x="104.393" y="207.309" width="28" height="28" rx="5" fill="#0077B6"/>
<rect x="160.793" y="207.309" width="28" height="28" rx="5" fill="#0077B6"/>
<rect x="217.193" y="207.309" width="28" height="28" rx="5" fill="#03045E"/>
<rect x="273.593" y="207.309" width="28" height="28" rx="5" fill="#0077B6"/>
<rect x="329.993" y="207.309" width="28" height="28" rx="5" fill="#90E0EF"/>
<rect x="386.393" y="207.309" width="28" height="28" rx="5" fill="#E0DCBE"/>
<rect x="104.393" y="250.309" width="28" height="28" rx="5" fill="#0077B6"/>
<rect x="160.793" y="250.309" width="28" height="28" rx="5" fill="#E0DCBE"/>
<rect x="217.193" y="250.309" width="28" height="28" rx="5" fill="#0077B6"/>
<rect x="273.593" y="250.309" width="28" height="28" rx="5" fill="#0077B6"/>
<rect x="329.993" y="250.309" width="28" height="28" rx="5" fill="#03045E"/>
<rect x="386.393" y="250.309" width="28" height="28" rx="5" fill="#0077B6"/>
<rect x="104.393" y="293.309" width="28" height="28" rx="5" fill="#03045E"/>
<rect x="160.793" y="293.309" width="28" height="28" rx="5" fill="#0077B6"/>
<rect x="217.193" y="293.309" width="28" height="28" rx="5" fill="#90E0EF"/>
<rect x="273.593" y="293.309" width="28" height="28" rx="5" fill="#0077B6"/>
<rect x="329.993" y="293.309" width="28" height="28" rx="5" fill="#E0DCBE"/>
<rect x="386.393" y="293.309" width="28" height="28" rx="5" fill="#0077B6"/>
</g>
<text fill="black" xml:space="preserve" style="white-space: pre" font-family="Roboto Mono" font-size="16" font-weight="bold" letter-spacing="0em"><tspan x="183.823" y="98.5234">Week start date</tspan></text>
</g>
<text fill="black" xml:space="preserve" style="white-space: pre" font-family="Roboto" font-size="13" font-weight="500" letter-spacing="0em"><tspan x="210.87" y="347.965">Less</tspan></text>
<rect x="248.87" y="337.022" width="13" height="13" rx="1" fill="#E0DCBE"/>
<rect x="271.87" y="337.022" width="13" height="13" rx="1" fill="#90E0EF"/>
<rect x="294.87" y="337.022" width="13" height="13" rx="1" fill="#0077B6"/>
<rect x="317.87" y="337.022" width="13" height="13" rx="1" fill="#03045E"/>
<text fill="black" xml:space="preserve" style="white-space: pre" font-family="Roboto" font-size="13" font-weight="500" letter-spacing="0em"><tspan x="340.87" y="347.965">More</tspan></text>
<defs>
<clipPath id="clip0_546_547">
<rect width="578.235" height="253.754" fill="white" transform="translate(19.8934 79.3086)"/>
</clipPath>
<clipPath id="clip1_546_547">
<rect x="81.8934" y="115.309" width="355" height="224" rx="6" fill="white"/>
</clipPath>
</defs>
</svg>
