<svg width="376" height="71" viewBox="0 0 376 71" fill="none" xmlns="http://www.w3.org/2000/svg">
<rect x="2" y="2" width="372" height="67" rx="33.5" fill="white" stroke="url(#paint0_linear_483_1034)" stroke-width="4"/>
<path d="M32.078 52.4404V26.8467H35.8046V52.4404H32.078ZM40.5507 52.4404V35.126H43.9608L44.0311 37.4287H44.1014C44.6405 36.5967 45.3729 35.9463 46.2987 35.4775C47.2362 34.9971 48.2909 34.7568 49.4628 34.7568C51.1971 34.7568 52.5858 35.249 53.6288 36.2334C54.6718 37.2178 55.1932 38.8701 55.1932 41.1904V52.4404H51.5897V41.4014C51.5897 40.0537 51.2968 39.0986 50.7108 38.5361C50.1249 37.9619 49.2987 37.6748 48.2323 37.6748C47.33 37.6748 46.5214 37.9326 45.8065 38.4482C45.0917 38.9521 44.5409 39.6201 44.1542 40.4521V52.4404H40.5507ZM58.5507 47.1143L62.0135 47.1318V47.3955C62.0135 48.4033 62.3475 49.1416 63.0155 49.6104C63.6952 50.0674 64.6151 50.2959 65.7753 50.2959C66.9237 50.2959 67.8143 50.085 68.4471 49.6631C69.08 49.2295 69.3964 48.6201 69.3964 47.835C69.3964 47.0732 69.0975 46.5049 68.4999 46.1299C67.9139 45.7432 66.7245 45.3389 64.9315 44.917C62.9745 44.46 61.4979 43.8271 60.5018 43.0186C59.5057 42.21 59.0077 41.0908 59.0077 39.6611C59.0077 38.1494 59.6112 36.9424 60.8182 36.04C62.037 35.126 63.6835 34.6689 65.7577 34.6689C67.8085 34.6689 69.4491 35.1318 70.6796 36.0576C71.9218 36.9834 72.5428 38.2842 72.5428 39.96V40.1885H69.0975V39.9248C69.0975 39.0225 68.8104 38.3604 68.2362 37.9385C67.6737 37.5166 66.8358 37.3057 65.7225 37.3057C64.6327 37.3057 63.8241 37.499 63.2968 37.8857C62.7811 38.2607 62.5233 38.7881 62.5233 39.4678C62.5233 40.1006 62.8221 40.6045 63.4198 40.9795C64.0292 41.3545 65.2186 41.7529 66.9882 42.1748C68.9452 42.6201 70.4276 43.2471 71.4354 44.0557C72.455 44.8643 72.9647 46.0127 72.9647 47.501C72.9647 49.1533 72.3612 50.4658 71.1542 51.4385C69.9589 52.4111 68.1776 52.8975 65.8104 52.8975C63.4667 52.8975 61.6737 52.4111 60.4315 51.4385C59.1893 50.4541 58.5682 49.0947 58.5682 47.3604L58.5507 47.1143ZM75.4257 44.0557V43.4932C75.4257 40.8564 76.1639 38.7295 77.6405 37.1123C79.1288 35.4834 81.0858 34.6689 83.5116 34.6689C85.9374 34.6689 87.8065 35.4307 89.119 36.9541C90.4315 38.4658 91.0878 40.5576 91.0878 43.2295V44.4951H77.5526V42.0518H87.537V41.7881C87.537 40.6162 87.2089 39.6025 86.5526 38.7471C85.9081 37.8799 84.9061 37.4463 83.5468 37.4463C82.0585 37.4463 80.9335 37.9971 80.1718 39.0986C79.41 40.2002 79.0292 41.6123 79.0292 43.335V44.1084C79.0292 45.8779 79.4335 47.3193 80.2421 48.4326C81.0507 49.5459 82.2518 50.1025 83.8456 50.1025C84.9003 50.1025 85.8026 49.874 86.5526 49.417C87.3026 48.96 87.9003 48.3975 88.3456 47.7295L90.9296 49.3115C90.4022 50.2725 89.5468 51.1104 88.3632 51.8252C87.1796 52.54 85.6854 52.8975 83.8807 52.8975C81.1854 52.8975 79.0995 52.0889 77.6229 50.4717C76.1581 48.8545 75.4257 46.7158 75.4257 44.0557ZM94.3046 52.4404V35.126H97.7499L97.8026 37.3936H97.8729C98.3182 36.6436 98.91 36.0107 99.6483 35.4951C100.387 34.9678 101.254 34.7041 102.25 34.7041C102.508 34.7041 102.777 34.7275 103.058 34.7744C103.34 34.8213 103.533 34.8682 103.639 34.915V38.0088C103.428 37.9502 103.187 37.9092 102.918 37.8857C102.648 37.8506 102.355 37.833 102.039 37.833C101.148 37.833 100.34 38.0967 99.6132 38.624C98.8866 39.1514 98.33 39.8311 97.9432 40.6631V52.4404H94.3046ZM104.834 37.9033V35.126H115.152V37.9033H104.834ZM107.769 47.6768V36.3389L107.805 35.9873V29.8877H111.355V47.3955C111.355 48.4385 111.519 49.1357 111.848 49.4873C112.176 49.8271 112.685 49.9971 113.377 49.9971C113.67 49.9971 113.957 49.9736 114.238 49.9268C114.519 49.8682 114.801 49.7803 115.082 49.6631V52.4404C114.801 52.5576 114.426 52.6572 113.957 52.7393C113.488 52.833 112.955 52.8799 112.357 52.8799C110.939 52.8799 109.82 52.4814 109 51.6846C108.18 50.876 107.769 49.54 107.769 47.6768ZM125.84 52.4404V35.126H129.285L129.338 37.3936H129.408C129.853 36.6436 130.445 36.0107 131.183 35.4951C131.922 34.9678 132.789 34.7041 133.785 34.7041C134.043 34.7041 134.312 34.7275 134.594 34.7744C134.875 34.8213 135.068 34.8682 135.174 34.915V38.0088C134.963 37.9502 134.723 37.9092 134.453 37.8857C134.183 37.8506 133.891 37.833 133.574 37.833C132.683 37.833 131.875 38.0967 131.148 38.624C130.422 39.1514 129.865 39.8311 129.478 40.6631V52.4404H125.84ZM136.246 44.0557V43.4932C136.246 40.8564 136.984 38.7295 138.461 37.1123C139.949 35.4834 141.906 34.6689 144.332 34.6689C146.758 34.6689 148.627 35.4307 149.939 36.9541C151.252 38.4658 151.908 40.5576 151.908 43.2295V44.4951H138.373V42.0518H148.357V41.7881C148.357 40.6162 148.029 39.6025 147.373 38.7471C146.728 37.8799 145.726 37.4463 144.367 37.4463C142.879 37.4463 141.754 37.9971 140.992 39.0986C140.23 40.2002 139.849 41.6123 139.849 43.335V44.1084C139.849 45.8779 140.254 47.3193 141.062 48.4326C141.871 49.5459 143.072 50.1025 144.666 50.1025C145.721 50.1025 146.623 49.874 147.373 49.417C148.123 48.96 148.721 48.3975 149.166 47.7295L151.75 49.3115C151.223 50.2725 150.367 51.1104 149.183 51.8252C148 52.54 146.506 52.8975 144.701 52.8975C142.006 52.8975 139.92 52.0889 138.443 50.4717C136.978 48.8545 136.246 46.7158 136.246 44.0557ZM155.125 59.9463V35.126H158.517L158.57 37.3936L158.641 37.376C159.086 36.6494 159.777 36.0342 160.715 35.5303C161.664 35.0146 162.742 34.7568 163.949 34.7568C166.152 34.7568 167.898 35.5537 169.187 37.1475C170.476 38.7295 171.121 40.833 171.121 43.458V44.0205C171.121 46.6455 170.471 48.7666 169.17 50.3838C167.881 51.9893 166.146 52.792 163.967 52.792C162.76 52.792 161.717 52.5752 160.838 52.1416C159.959 51.708 159.256 51.1338 158.728 50.4189V59.9463H155.125ZM158.728 47.1494C159.045 47.8994 159.566 48.5615 160.293 49.1357C161.031 49.6982 161.922 49.9795 162.965 49.9795C164.512 49.9795 165.648 49.4287 166.375 48.3271C167.101 47.2256 167.465 45.8135 167.465 44.0908V43.3877C167.465 41.665 167.101 40.2705 166.375 39.2041C165.648 38.126 164.512 37.5869 162.965 37.5869C161.922 37.5869 161.037 37.874 160.31 38.4482C159.584 39.0107 159.057 39.6611 158.728 40.3994V47.1494ZM173.441 44.0557V43.4932C173.441 40.8564 174.209 38.7295 175.744 37.1123C177.279 35.4834 179.324 34.6689 181.879 34.6689C184.422 34.6689 186.461 35.4834 187.996 37.1123C189.531 38.7295 190.299 40.8564 190.299 43.4932V44.0557C190.299 46.7041 189.531 48.8428 187.996 50.4717C186.461 52.0889 184.422 52.8975 181.879 52.8975C179.324 52.8975 177.279 52.0889 175.744 50.4717C174.209 48.8428 173.441 46.7041 173.441 44.0557ZM177.098 43.4229V44.126C177.098 45.8721 177.502 47.3018 178.31 48.415C179.119 49.5166 180.303 50.0674 181.861 50.0674C183.432 50.0674 184.615 49.5166 185.412 48.415C186.221 47.3018 186.625 45.8721 186.625 44.126V43.4229C186.625 41.6768 186.221 40.2529 185.412 39.1514C184.603 38.0498 183.42 37.499 181.861 37.499C180.314 37.499 179.131 38.0498 178.31 39.1514C177.502 40.2529 177.098 41.6768 177.098 43.4229Z" fill="black" fill-opacity="0.5"/>
<path d="M342.014 38.3954C340.152 38.3954 338.577 37.7506 337.288 36.4608C335.999 35.171 335.354 33.5957 335.353 31.7348C335.352 29.874 335.997 28.2986 337.288 27.0089C338.578 25.7191 340.154 25.0742 342.014 25.0742C343.874 25.0742 345.45 25.7191 346.741 27.0089C348.032 28.2986 348.676 29.874 348.674 31.7348C348.674 32.4863 348.555 33.195 348.316 33.8611C348.077 34.5272 347.752 35.1164 347.342 35.6287L353.081 41.3671C353.268 41.555 353.362 41.7941 353.362 42.0844C353.362 42.3747 353.268 42.6138 353.081 42.8017C352.893 42.9895 352.654 43.0835 352.363 43.0835C352.073 43.0835 351.834 42.9895 351.646 42.8017L345.908 37.0633C345.395 37.4732 344.806 37.7977 344.14 38.0368C343.474 38.2759 342.765 38.3954 342.014 38.3954ZM342.014 36.346C343.295 36.346 344.384 35.8979 345.281 35.0016C346.177 34.1053 346.626 33.0164 346.625 31.7348C346.624 30.4533 346.176 29.3647 345.281 28.4691C344.385 27.5735 343.296 27.125 342.014 27.1236C340.732 27.1223 339.643 27.5708 338.748 28.4691C337.853 29.3674 337.405 30.456 337.403 31.7348C337.401 33.0137 337.849 34.1026 338.748 35.0016C339.647 35.9006 340.736 36.3488 342.014 36.346Z" fill="black"/>
<defs>
<linearGradient id="paint0_linear_483_1034" x1="0" y1="35.5" x2="376" y2="35.5" gradientUnits="userSpaceOnUse">
<stop offset="0.121" stop-color="#EE6B4A"/>
<stop offset="0.451" stop-color="#E60202"/>
<stop offset="0.951" stop-color="#FB3E3E"/>
</linearGradient>
</defs>
</svg>
