<svg width="469" height="290" viewBox="0 0 469 290" fill="none" xmlns="http://www.w3.org/2000/svg">
<g filter="url(#filter0_d_483_1049)">
<rect x="4" y="5.06641" width="448.55" height="268.502" rx="20" fill="#FB9D24"/>
<rect x="18.3459" y="57.3718" width="416.989" height="199.633" rx="20" fill="white"/>
<rect x="41.0001" y="228.94" width="154.009" height="53.8082" rx="5" transform="rotate(-90 41.0001 228.94)" fill="#D9D9D9"/>
<path d="M53.4808 83.4636H55.142V90.3748C55.1374 90.8396 55.0485 91.268 54.8754 91.6599C54.7067 92.0473 54.472 92.3822 54.1713 92.6648C53.875 92.9473 53.5241 93.1661 53.1185 93.321C52.7175 93.476 52.2823 93.5535 51.8129 93.5535C51.3298 93.5535 50.8877 93.4874 50.4867 93.3552C50.0902 93.2185 49.7484 93.0225 49.4613 92.7673C49.1742 92.5121 48.9463 92.1954 48.7777 91.8171C48.6136 91.4389 48.5225 91.0037 48.5043 90.5115H50.1586C50.1631 90.7667 50.1996 90.9968 50.2679 91.2019C50.3363 91.4024 50.432 91.5733 50.5551 91.7146C50.6963 91.8787 50.8718 92.0017 51.0814 92.0837C51.2911 92.1658 51.5349 92.2068 51.8129 92.2068C52.0681 92.2068 52.2982 92.1589 52.5033 92.0632C52.7084 91.9675 52.8838 91.8376 53.0297 91.6736C53.1709 91.5095 53.2803 91.3158 53.3578 91.0925C53.4398 90.8647 53.4808 90.6254 53.4808 90.3748V83.4636ZM61.9711 93.4167C61.9209 93.3256 61.8799 93.2162 61.848 93.0886C61.8207 92.9565 61.7956 92.8197 61.7728 92.6785C61.6589 92.797 61.529 92.9109 61.3832 93.0203C61.2419 93.1251 61.0824 93.2162 60.9047 93.2937C60.7269 93.3757 60.5355 93.4395 60.3304 93.4851C60.1254 93.5307 59.9043 93.5535 59.6674 93.5535C59.2845 93.5535 58.9336 93.4988 58.6146 93.3894C58.3002 93.2755 58.0313 93.1205 57.808 92.9246C57.5801 92.7332 57.4024 92.503 57.2748 92.2341C57.1517 91.9607 57.0902 91.6667 57.0902 91.3523C57.0902 90.9467 57.17 90.5889 57.3295 90.2791C57.4935 89.9646 57.7305 89.7048 58.0404 89.4998C58.3275 89.3083 58.6807 89.1625 59.1 89.0623C59.5238 88.962 60.0023 88.9119 60.5355 88.9119H61.725V88.4128C61.725 88.2214 61.6908 88.0483 61.6224 87.8933C61.5586 87.7384 61.4652 87.6039 61.3422 87.49C61.21 87.3761 61.0482 87.2895 60.8568 87.2302C60.67 87.1664 60.4535 87.1345 60.2074 87.1345C59.9841 87.1345 59.7881 87.1619 59.6195 87.2166C59.4554 87.2712 59.3187 87.3464 59.2094 87.4421C59.1 87.5287 59.0179 87.6358 58.9633 87.7634C58.9131 87.8865 58.8881 88.0186 58.8881 88.1599H57.2474C57.252 87.8637 57.3226 87.5789 57.4594 87.3054C57.5961 87.032 57.7966 86.7904 58.0609 86.5808C58.3161 86.3666 58.6306 86.198 59.0043 86.075C59.3825 85.9473 59.8132 85.8835 60.2963 85.8835C60.7292 85.8835 61.1325 85.9382 61.5062 86.0476C61.8845 86.1524 62.2103 86.3097 62.4838 86.5193C62.7572 86.7289 62.9714 86.9955 63.1263 87.3191C63.2813 87.6381 63.3588 88.0072 63.3588 88.4265V91.7146C63.3588 92.0473 63.3816 92.3481 63.4271 92.6169C63.4773 92.8813 63.5479 93.1091 63.639 93.3005V93.4167H61.9711ZM59.9818 92.241C60.196 92.241 60.3942 92.2136 60.5765 92.1589C60.7634 92.1042 60.932 92.0336 61.0824 91.947C61.2328 91.8604 61.3627 91.7625 61.472 91.6531C61.5814 91.5437 61.6657 91.4298 61.725 91.3113V89.9441H60.6722C60.3168 89.9441 60.0092 89.9783 59.7494 90.0466C59.4896 90.1104 59.2823 90.2039 59.1273 90.3269C58.9906 90.4317 58.8881 90.557 58.8197 90.7029C58.7559 90.8487 58.724 91.0128 58.724 91.1951C58.724 91.3455 58.7513 91.4867 58.806 91.6189C58.8607 91.7465 58.9405 91.8559 59.0453 91.947C59.1501 92.0382 59.28 92.1111 59.4349 92.1658C59.5899 92.2159 59.7722 92.241 59.9818 92.241ZM65.6556 93.4167V86.0203H67.1322L67.2347 87.073C67.335 86.9317 67.4444 86.8018 67.5629 86.6833C67.6859 86.5603 67.8158 86.4509 67.9525 86.3552C68.1713 86.2048 68.4105 86.0886 68.6703 86.0066C68.9301 85.9246 69.2035 85.8835 69.4906 85.8835C69.8689 85.8835 70.2152 85.9382 70.5297 86.0476C70.8441 86.157 71.113 86.3302 71.3363 86.5671C71.5596 86.8041 71.7328 87.1072 71.8558 87.4763C71.9789 87.8409 72.0404 88.283 72.0404 88.8025V93.4167H70.4066V88.8298C70.4066 88.5245 70.3724 88.2693 70.3041 88.0642C70.2357 87.8591 70.1355 87.6951 70.0033 87.572C69.8711 87.449 69.7116 87.3624 69.5248 87.3123C69.3379 87.2576 69.1237 87.2302 68.8822 87.2302C68.6817 87.2302 68.4948 87.2576 68.3217 87.3123C68.1485 87.3624 67.9913 87.4353 67.85 87.531C67.7406 87.6039 67.6381 87.6928 67.5424 87.7976C67.4467 87.9024 67.3623 88.0164 67.2894 88.1394V93.4167H65.6556ZM74.0638 93.4167V86.0203H75.5404L75.6429 87.073C75.7432 86.9317 75.8526 86.8018 75.9711 86.6833C76.0941 86.5603 76.224 86.4509 76.3607 86.3552C76.5795 86.2048 76.8187 86.0886 77.0785 86.0066C77.3383 85.9246 77.6117 85.8835 77.8988 85.8835C78.2771 85.8835 78.6234 85.9382 78.9379 86.0476C79.2523 86.157 79.5212 86.3302 79.7445 86.5671C79.9678 86.8041 80.141 87.1072 80.264 87.4763C80.3871 87.8409 80.4486 88.283 80.4486 88.8025V93.4167H78.8148V88.8298C78.8148 88.5245 78.7806 88.2693 78.7123 88.0642C78.6439 87.8591 78.5437 87.6951 78.4115 87.572C78.2793 87.449 78.1198 87.3624 77.933 87.3123C77.7461 87.2576 77.5319 87.2302 77.2904 87.2302C77.0899 87.2302 76.903 87.2576 76.7299 87.3123C76.5567 87.3624 76.3995 87.4353 76.2582 87.531C76.1488 87.6039 76.0463 87.6928 75.9506 87.7976C75.8549 87.9024 75.7705 88.0164 75.6976 88.1394V93.4167H74.0638ZM82.848 86.0203H86.7719V92.0632H88.9457V93.4167H82.848V92.0632H85.1244V87.3806H82.848V86.0203ZM84.974 84.1062C84.974 83.974 84.9968 83.8533 85.0424 83.7439C85.0879 83.63 85.154 83.532 85.2406 83.45C85.3226 83.3725 85.4206 83.3132 85.5345 83.2722C85.653 83.2266 85.7852 83.2039 85.931 83.2039C86.1771 83.2039 86.3754 83.2677 86.5258 83.3953C86.6807 83.5183 86.7696 83.6778 86.7924 83.8738C86.8243 84.0743 86.7901 84.2498 86.6898 84.4001C86.5896 84.546 86.4437 84.644 86.2523 84.6941C86.1566 84.7807 86.0427 84.8376 85.9105 84.865C85.7784 84.8923 85.6325 84.8809 85.473 84.8308C85.309 84.7807 85.1836 84.6918 85.097 84.5642C85.015 84.432 84.974 84.2794 84.974 84.1062Z" fill="black"/>
<path d="M50.5619 130.623V134.417H48.9213V124.464H52.2504C52.7517 124.468 53.212 124.543 53.6312 124.689C54.0551 124.835 54.4196 125.042 54.725 125.311C55.0303 125.58 55.2673 125.906 55.4359 126.289C55.6045 126.672 55.6888 127.102 55.6888 127.581C55.6888 128.041 55.6045 128.458 55.4359 128.832C55.2673 129.201 55.0303 129.518 54.725 129.782C54.4196 130.051 54.0551 130.258 53.6312 130.404C53.212 130.55 52.7517 130.623 52.2504 130.623H50.5619ZM50.5619 129.283H52.2504C52.5284 129.278 52.7767 129.235 52.9955 129.153C53.2188 129.066 53.4079 128.948 53.5629 128.798C53.7178 128.647 53.834 128.469 53.9115 128.264C53.9935 128.059 54.0345 127.836 54.0345 127.594C54.0345 127.33 53.9935 127.091 53.9115 126.877C53.834 126.658 53.7178 126.469 53.5629 126.309C53.4079 126.15 53.2188 126.027 52.9955 125.94C52.7767 125.854 52.5284 125.808 52.2504 125.803H50.5619V129.283ZM61.9711 134.417C61.9209 134.326 61.8799 134.216 61.848 134.089C61.8207 133.956 61.7956 133.82 61.7728 133.678C61.6589 133.797 61.529 133.911 61.3832 134.02C61.2419 134.125 61.0824 134.216 60.9047 134.294C60.7269 134.376 60.5355 134.44 60.3304 134.485C60.1254 134.531 59.9043 134.553 59.6674 134.553C59.2845 134.553 58.9336 134.499 58.6146 134.389C58.3002 134.275 58.0313 134.121 57.808 133.925C57.5801 133.733 57.4024 133.503 57.2748 133.234C57.1517 132.961 57.0902 132.667 57.0902 132.352C57.0902 131.947 57.17 131.589 57.3295 131.279C57.4935 130.965 57.7305 130.705 58.0404 130.5C58.3275 130.308 58.6807 130.163 59.1 130.062C59.5238 129.962 60.0023 129.912 60.5355 129.912H61.725V129.413C61.725 129.221 61.6908 129.048 61.6224 128.893C61.5586 128.738 61.4652 128.604 61.3422 128.49C61.21 128.376 61.0482 128.289 60.8568 128.23C60.67 128.166 60.4535 128.135 60.2074 128.135C59.9841 128.135 59.7881 128.162 59.6195 128.217C59.4554 128.271 59.3187 128.346 59.2094 128.442C59.1 128.529 59.0179 128.636 58.9633 128.763C58.9131 128.886 58.8881 129.019 58.8881 129.16H57.2474C57.252 128.864 57.3226 128.579 57.4594 128.305C57.5961 128.032 57.7966 127.79 58.0609 127.581C58.3161 127.367 58.6306 127.198 59.0043 127.075C59.3825 126.947 59.8132 126.884 60.2963 126.884C60.7292 126.884 61.1325 126.938 61.5062 127.048C61.8845 127.152 62.2103 127.31 62.4838 127.519C62.7572 127.729 62.9714 127.996 63.1263 128.319C63.2813 128.638 63.3588 129.007 63.3588 129.427V132.715C63.3588 133.047 63.3816 133.348 63.4271 133.617C63.4773 133.881 63.5479 134.109 63.639 134.301V134.417H61.9711ZM59.9818 133.241C60.196 133.241 60.3942 133.214 60.5765 133.159C60.7634 133.104 60.932 133.034 61.0824 132.947C61.2328 132.86 61.3627 132.762 61.472 132.653C61.5814 132.544 61.6657 132.43 61.725 132.311V130.944H60.6722C60.3168 130.944 60.0092 130.978 59.7494 131.047C59.4896 131.11 59.2823 131.204 59.1273 131.327C58.9906 131.432 58.8881 131.557 58.8197 131.703C58.7559 131.849 58.724 132.013 58.724 132.195C58.724 132.345 58.7513 132.487 58.806 132.619C58.8607 132.747 58.9405 132.856 59.0453 132.947C59.1501 133.038 59.28 133.111 59.4349 133.166C59.5899 133.216 59.7722 133.241 59.9818 133.241ZM65.6556 134.417V127.02H67.1322L67.2347 128.073C67.335 127.932 67.4444 127.802 67.5629 127.683C67.6859 127.56 67.8158 127.451 67.9525 127.355C68.1713 127.205 68.4105 127.089 68.6703 127.007C68.9301 126.925 69.2035 126.884 69.4906 126.884C69.8689 126.884 70.2152 126.938 70.5297 127.048C70.8441 127.157 71.113 127.33 71.3363 127.567C71.5596 127.804 71.7328 128.107 71.8558 128.476C71.9789 128.841 72.0404 129.283 72.0404 129.802V134.417H70.4066V129.83C70.4066 129.524 70.3724 129.269 70.3041 129.064C70.2357 128.859 70.1355 128.695 70.0033 128.572C69.8711 128.449 69.7116 128.362 69.5248 128.312C69.3379 128.258 69.1237 128.23 68.8822 128.23C68.6817 128.23 68.4948 128.258 68.3217 128.312C68.1485 128.362 67.9913 128.435 67.85 128.531C67.7406 128.604 67.6381 128.693 67.5424 128.798C67.4467 128.902 67.3623 129.016 67.2894 129.139V134.417H65.6556ZM74.0638 134.417V127.02H75.5404L75.6429 128.073C75.7432 127.932 75.8526 127.802 75.9711 127.683C76.0941 127.56 76.224 127.451 76.3607 127.355C76.5795 127.205 76.8187 127.089 77.0785 127.007C77.3383 126.925 77.6117 126.884 77.8988 126.884C78.2771 126.884 78.6234 126.938 78.9379 127.048C79.2523 127.157 79.5212 127.33 79.7445 127.567C79.9678 127.804 80.141 128.107 80.264 128.476C80.3871 128.841 80.4486 129.283 80.4486 129.802V134.417H78.8148V129.83C78.8148 129.524 78.7806 129.269 78.7123 129.064C78.6439 128.859 78.5437 128.695 78.4115 128.572C78.2793 128.449 78.1198 128.362 77.933 128.312C77.7461 128.258 77.5319 128.23 77.2904 128.23C77.0899 128.23 76.903 128.258 76.7299 128.312C76.5567 128.362 76.3995 128.435 76.2582 128.531C76.1488 128.604 76.0463 128.693 75.9506 128.798C75.8549 128.902 75.7705 129.016 75.6976 129.139V134.417H74.0638ZM82.848 127.02H86.7719V133.063H88.9457V134.417H82.848V133.063H85.1244V128.381H82.848V127.02ZM84.974 125.106C84.974 124.974 84.9968 124.853 85.0424 124.744C85.0879 124.63 85.154 124.532 85.2406 124.45C85.3226 124.372 85.4206 124.313 85.5345 124.272C85.653 124.227 85.7852 124.204 85.931 124.204C86.1771 124.204 86.3754 124.268 86.5258 124.395C86.6807 124.518 86.7696 124.678 86.7924 124.874C86.8243 125.074 86.7901 125.25 86.6898 125.4C86.5896 125.546 86.4437 125.644 86.2523 125.694C86.1566 125.781 86.0427 125.838 85.9105 125.865C85.7784 125.892 85.6325 125.881 85.473 125.831C85.309 125.781 85.1836 125.692 85.097 125.564C85.015 125.432 84.974 125.279 84.974 125.106Z" fill="black"/>
<path d="M48.723 175.417V165.464H51.184C51.6123 165.464 52.0157 165.514 52.3939 165.614C52.7722 165.71 53.1163 165.844 53.4261 166.017C53.7634 166.195 54.0619 166.418 54.3217 166.687C54.586 166.956 54.807 167.257 54.9847 167.59C55.167 167.936 55.3083 168.316 55.4086 168.731C55.5088 169.146 55.559 169.588 55.559 170.057V170.837C55.559 171.288 55.5111 171.716 55.4154 172.122C55.3243 172.523 55.1921 172.89 55.0189 173.222C54.8503 173.546 54.6452 173.84 54.4037 174.104C54.1667 174.369 53.9024 174.594 53.6107 174.781C53.2826 174.986 52.918 175.143 52.517 175.253C52.1205 175.362 51.6944 175.417 51.2386 175.417H48.723ZM50.3842 166.803V174.084H51.2386C51.5303 174.084 51.7969 174.05 52.0385 173.981C52.2845 173.908 52.5056 173.806 52.7015 173.674C52.9021 173.537 53.0798 173.366 53.2347 173.161C53.3942 172.951 53.5241 172.712 53.6244 172.443C53.711 172.215 53.7771 171.967 53.8226 171.698C53.8682 171.429 53.891 171.142 53.891 170.837V170.044C53.891 169.743 53.8682 169.458 53.8226 169.189C53.7771 168.92 53.711 168.672 53.6244 168.444C53.515 168.166 53.3692 167.915 53.1869 167.692C53.0046 167.464 52.7881 167.28 52.5375 167.138C52.3552 167.034 52.1501 166.954 51.9222 166.899C51.6944 166.84 51.4483 166.808 51.184 166.803H50.3842ZM61.9711 175.417C61.9209 175.326 61.8799 175.216 61.848 175.089C61.8207 174.956 61.7956 174.82 61.7728 174.678C61.6589 174.797 61.529 174.911 61.3832 175.02C61.2419 175.125 61.0824 175.216 60.9047 175.294C60.7269 175.376 60.5355 175.44 60.3304 175.485C60.1254 175.531 59.9043 175.553 59.6674 175.553C59.2845 175.553 58.9336 175.499 58.6146 175.389C58.3002 175.275 58.0313 175.121 57.808 174.925C57.5801 174.733 57.4024 174.503 57.2748 174.234C57.1517 173.961 57.0902 173.667 57.0902 173.352C57.0902 172.947 57.17 172.589 57.3295 172.279C57.4935 171.965 57.7305 171.705 58.0404 171.5C58.3275 171.308 58.6807 171.163 59.1 171.062C59.5238 170.962 60.0023 170.912 60.5355 170.912H61.725V170.413C61.725 170.221 61.6908 170.048 61.6224 169.893C61.5586 169.738 61.4652 169.604 61.3422 169.49C61.21 169.376 61.0482 169.289 60.8568 169.23C60.67 169.166 60.4535 169.135 60.2074 169.135C59.9841 169.135 59.7881 169.162 59.6195 169.217C59.4554 169.271 59.3187 169.346 59.2094 169.442C59.1 169.529 59.0179 169.636 58.9633 169.763C58.9131 169.886 58.8881 170.019 58.8881 170.16H57.2474C57.252 169.864 57.3226 169.579 57.4594 169.305C57.5961 169.032 57.7966 168.79 58.0609 168.581C58.3161 168.367 58.6306 168.198 59.0043 168.075C59.3825 167.947 59.8132 167.884 60.2963 167.884C60.7292 167.884 61.1325 167.938 61.5062 168.048C61.8845 168.152 62.2103 168.31 62.4838 168.519C62.7572 168.729 62.9714 168.996 63.1263 169.319C63.2813 169.638 63.3588 170.007 63.3588 170.427V173.715C63.3588 174.047 63.3816 174.348 63.4271 174.617C63.4773 174.881 63.5479 175.109 63.639 175.301V175.417H61.9711ZM59.9818 174.241C60.196 174.241 60.3942 174.214 60.5765 174.159C60.7634 174.104 60.932 174.034 61.0824 173.947C61.2328 173.86 61.3627 173.762 61.472 173.653C61.5814 173.544 61.6657 173.43 61.725 173.311V171.944H60.6722C60.3168 171.944 60.0092 171.978 59.7494 172.047C59.4896 172.11 59.2823 172.204 59.1273 172.327C58.9906 172.432 58.8881 172.557 58.8197 172.703C58.7559 172.849 58.724 173.013 58.724 173.195C58.724 173.345 58.7513 173.487 58.806 173.619C58.8607 173.747 58.9405 173.856 59.0453 173.947C59.1501 174.038 59.28 174.111 59.4349 174.166C59.5899 174.216 59.7722 174.241 59.9818 174.241ZM65.6556 175.417V168.02H67.1322L67.2347 169.073C67.335 168.932 67.4444 168.802 67.5629 168.683C67.6859 168.56 67.8158 168.451 67.9525 168.355C68.1713 168.205 68.4105 168.089 68.6703 168.007C68.9301 167.925 69.2035 167.884 69.4906 167.884C69.8689 167.884 70.2152 167.938 70.5297 168.048C70.8441 168.157 71.113 168.33 71.3363 168.567C71.5596 168.804 71.7328 169.107 71.8558 169.476C71.9789 169.841 72.0404 170.283 72.0404 170.802V175.417H70.4066V170.83C70.4066 170.524 70.3724 170.269 70.3041 170.064C70.2357 169.859 70.1355 169.695 70.0033 169.572C69.8711 169.449 69.7116 169.362 69.5248 169.312C69.3379 169.258 69.1237 169.23 68.8822 169.23C68.6817 169.23 68.4948 169.258 68.3217 169.312C68.1485 169.362 67.9913 169.435 67.85 169.531C67.7406 169.604 67.6381 169.693 67.5424 169.798C67.4467 169.902 67.3623 170.016 67.2894 170.139V175.417H65.6556ZM74.0638 175.417V168.02H75.5404L75.6429 169.073C75.7432 168.932 75.8526 168.802 75.9711 168.683C76.0941 168.56 76.224 168.451 76.3607 168.355C76.5795 168.205 76.8187 168.089 77.0785 168.007C77.3383 167.925 77.6117 167.884 77.8988 167.884C78.2771 167.884 78.6234 167.938 78.9379 168.048C79.2523 168.157 79.5212 168.33 79.7445 168.567C79.9678 168.804 80.141 169.107 80.264 169.476C80.3871 169.841 80.4486 170.283 80.4486 170.802V175.417H78.8148V170.83C78.8148 170.524 78.7806 170.269 78.7123 170.064C78.6439 169.859 78.5437 169.695 78.4115 169.572C78.2793 169.449 78.1198 169.362 77.933 169.312C77.7461 169.258 77.5319 169.23 77.2904 169.23C77.0899 169.23 76.903 169.258 76.7299 169.312C76.5567 169.362 76.3995 169.435 76.2582 169.531C76.1488 169.604 76.0463 169.693 75.9506 169.798C75.8549 169.902 75.7705 170.016 75.6976 170.139V175.417H74.0638ZM82.848 168.02H86.7719V174.063H88.9457V175.417H82.848V174.063H85.1244V169.381H82.848V168.02ZM84.974 166.106C84.974 165.974 84.9968 165.853 85.0424 165.744C85.0879 165.63 85.154 165.532 85.2406 165.45C85.3226 165.372 85.4206 165.313 85.5345 165.272C85.653 165.227 85.7852 165.204 85.931 165.204C86.1771 165.204 86.3754 165.268 86.5258 165.395C86.6807 165.518 86.7696 165.678 86.7924 165.874C86.8243 166.074 86.7901 166.25 86.6898 166.4C86.5896 166.546 86.4437 166.644 86.2523 166.694C86.1566 166.781 86.0427 166.838 85.9105 166.865C85.7784 166.892 85.6325 166.881 85.473 166.831C85.309 166.781 85.1836 166.692 85.097 166.564C85.015 166.432 84.974 166.279 84.974 166.106Z" fill="black"/>
<path d="M49.3929 216.417L48.0941 206.464H49.6185L50.3021 212.575L50.35 212.965L50.4183 212.554L51.3754 206.464H52.6332L53.6244 212.582L53.6927 212.992L53.7406 212.575L54.431 206.464H55.9623L54.6498 216.417H53.098L52.0863 210.326L52.0179 209.854L51.9427 210.326L50.9447 216.417H49.3929ZM61.9711 216.417C61.9209 216.326 61.8799 216.216 61.848 216.089C61.8207 215.956 61.7956 215.82 61.7728 215.678C61.6589 215.797 61.529 215.911 61.3832 216.02C61.2419 216.125 61.0824 216.216 60.9047 216.294C60.7269 216.376 60.5355 216.44 60.3304 216.485C60.1254 216.531 59.9043 216.553 59.6674 216.553C59.2845 216.553 58.9336 216.499 58.6146 216.389C58.3002 216.275 58.0313 216.121 57.808 215.925C57.5801 215.733 57.4024 215.503 57.2748 215.234C57.1517 214.961 57.0902 214.667 57.0902 214.352C57.0902 213.947 57.17 213.589 57.3295 213.279C57.4935 212.965 57.7305 212.705 58.0404 212.5C58.3275 212.308 58.6807 212.163 59.1 212.062C59.5238 211.962 60.0023 211.912 60.5355 211.912H61.725V211.413C61.725 211.221 61.6908 211.048 61.6224 210.893C61.5586 210.738 61.4652 210.604 61.3422 210.49C61.21 210.376 61.0482 210.289 60.8568 210.23C60.67 210.166 60.4535 210.135 60.2074 210.135C59.9841 210.135 59.7881 210.162 59.6195 210.217C59.4554 210.271 59.3187 210.346 59.2094 210.442C59.1 210.529 59.0179 210.636 58.9633 210.763C58.9131 210.886 58.8881 211.019 58.8881 211.16H57.2474C57.252 210.864 57.3226 210.579 57.4594 210.305C57.5961 210.032 57.7966 209.79 58.0609 209.581C58.3161 209.367 58.6306 209.198 59.0043 209.075C59.3825 208.947 59.8132 208.884 60.2963 208.884C60.7292 208.884 61.1325 208.938 61.5062 209.048C61.8845 209.152 62.2103 209.31 62.4838 209.519C62.7572 209.729 62.9714 209.996 63.1263 210.319C63.2813 210.638 63.3588 211.007 63.3588 211.427V214.715C63.3588 215.047 63.3816 215.348 63.4271 215.617C63.4773 215.881 63.5479 216.109 63.639 216.301V216.417H61.9711ZM59.9818 215.241C60.196 215.241 60.3942 215.214 60.5765 215.159C60.7634 215.104 60.932 215.034 61.0824 214.947C61.2328 214.86 61.3627 214.762 61.472 214.653C61.5814 214.544 61.6657 214.43 61.725 214.311V212.944H60.6722C60.3168 212.944 60.0092 212.978 59.7494 213.047C59.4896 213.11 59.2823 213.204 59.1273 213.327C58.9906 213.432 58.8881 213.557 58.8197 213.703C58.7559 213.849 58.724 214.013 58.724 214.195C58.724 214.345 58.7513 214.487 58.806 214.619C58.8607 214.747 58.9405 214.856 59.0453 214.947C59.1501 215.038 59.28 215.111 59.4349 215.166C59.5899 215.216 59.7722 215.241 59.9818 215.241ZM65.6556 216.417V209.02H67.1322L67.2347 210.073C67.335 209.932 67.4444 209.802 67.5629 209.683C67.6859 209.56 67.8158 209.451 67.9525 209.355C68.1713 209.205 68.4105 209.089 68.6703 209.007C68.9301 208.925 69.2035 208.884 69.4906 208.884C69.8689 208.884 70.2152 208.938 70.5297 209.048C70.8441 209.157 71.113 209.33 71.3363 209.567C71.5596 209.804 71.7328 210.107 71.8558 210.476C71.9789 210.841 72.0404 211.283 72.0404 211.802V216.417H70.4066V211.83C70.4066 211.524 70.3724 211.269 70.3041 211.064C70.2357 210.859 70.1355 210.695 70.0033 210.572C69.8711 210.449 69.7116 210.362 69.5248 210.312C69.3379 210.258 69.1237 210.23 68.8822 210.23C68.6817 210.23 68.4948 210.258 68.3217 210.312C68.1485 210.362 67.9913 210.435 67.85 210.531C67.7406 210.604 67.6381 210.693 67.5424 210.798C67.4467 210.902 67.3623 211.016 67.2894 211.139V216.417H65.6556ZM74.0638 216.417V209.02H75.5404L75.6429 210.073C75.7432 209.932 75.8526 209.802 75.9711 209.683C76.0941 209.56 76.224 209.451 76.3607 209.355C76.5795 209.205 76.8187 209.089 77.0785 209.007C77.3383 208.925 77.6117 208.884 77.8988 208.884C78.2771 208.884 78.6234 208.938 78.9379 209.048C79.2523 209.157 79.5212 209.33 79.7445 209.567C79.9678 209.804 80.141 210.107 80.264 210.476C80.3871 210.841 80.4486 211.283 80.4486 211.802V216.417H78.8148V211.83C78.8148 211.524 78.7806 211.269 78.7123 211.064C78.6439 210.859 78.5437 210.695 78.4115 210.572C78.2793 210.449 78.1198 210.362 77.933 210.312C77.7461 210.258 77.5319 210.23 77.2904 210.23C77.0899 210.23 76.903 210.258 76.7299 210.312C76.5567 210.362 76.3995 210.435 76.2582 210.531C76.1488 210.604 76.0463 210.693 75.9506 210.798C75.8549 210.902 75.7705 211.016 75.6976 211.139V216.417H74.0638ZM82.848 209.02H86.7719V215.063H88.9457V216.417H82.848V215.063H85.1244V210.381H82.848V209.02ZM84.974 207.106C84.974 206.974 84.9968 206.853 85.0424 206.744C85.0879 206.63 85.154 206.532 85.2406 206.45C85.3226 206.372 85.4206 206.313 85.5345 206.272C85.653 206.227 85.7852 206.204 85.931 206.204C86.1771 206.204 86.3754 206.268 86.5258 206.395C86.6807 206.518 86.7696 206.678 86.7924 206.874C86.8243 207.074 86.7901 207.25 86.6898 207.4C86.5896 207.546 86.4437 207.644 86.2523 207.694C86.1566 207.781 86.0427 207.838 85.9105 207.865C85.7784 207.892 85.6325 207.881 85.473 207.831C85.309 207.781 85.1836 207.692 85.097 207.564C85.015 207.432 84.974 207.279 84.974 207.106Z" fill="black"/>
<path d="M104.207 80.5237C104.207 77.21 106.893 74.5237 110.207 74.5237H408.207C411.521 74.5237 414.207 77.21 414.207 80.5237V112.524H104.207V80.5237Z" fill="#03045E"/>
<path d="M389.57 87.8596V88.8264L385.307 98.5237H383.447L387.702 89.2659H382.18V87.8596H389.57ZM397.985 95.616C397.985 96.28 397.832 96.8391 397.524 97.2932C397.216 97.7473 396.796 98.0916 396.264 98.3259C395.737 98.5554 395.141 98.6702 394.477 98.6702C393.813 98.6702 393.215 98.5554 392.683 98.3259C392.15 98.0916 391.73 97.7473 391.423 97.2932C391.115 96.8391 390.961 96.28 390.961 95.616C390.961 95.1765 391.047 94.7786 391.218 94.4221C391.389 94.0608 391.63 93.7507 391.943 93.4919C392.26 93.2283 392.631 93.0256 393.056 92.884C393.486 92.7424 393.955 92.6716 394.462 92.6716C395.136 92.6716 395.739 92.7961 396.271 93.0452C396.804 93.2942 397.221 93.6384 397.524 94.0779C397.832 94.5173 397.985 95.03 397.985 95.616ZM396.213 95.5281C396.213 95.1716 396.14 94.8591 395.993 94.5906C395.847 94.322 395.642 94.1145 395.378 93.968C395.114 93.8215 394.809 93.7483 394.462 93.7483C394.111 93.7483 393.806 93.8215 393.547 93.968C393.288 94.1145 393.085 94.322 392.939 94.5906C392.797 94.8591 392.727 95.1716 392.727 95.5281C392.727 95.8894 392.797 96.2019 392.939 96.4656C393.081 96.7244 393.283 96.9221 393.547 97.0588C393.811 97.1956 394.121 97.2639 394.477 97.2639C394.833 97.2639 395.141 97.1956 395.4 97.0588C395.659 96.9221 395.859 96.7244 396 96.4656C396.142 96.2019 396.213 95.8894 396.213 95.5281ZM397.744 90.6648C397.744 91.197 397.602 91.6707 397.319 92.0857C397.041 92.5007 396.655 92.8279 396.162 93.0671C395.668 93.3015 395.107 93.4187 394.477 93.4187C393.842 93.4187 393.276 93.3015 392.778 93.0671C392.285 92.8279 391.896 92.5007 391.613 92.0857C391.335 91.6707 391.196 91.197 391.196 90.6648C391.196 90.03 391.335 89.4954 391.613 89.0608C391.896 88.6213 392.285 88.2869 392.778 88.0574C393.271 87.8279 393.835 87.7131 394.47 87.7131C395.104 87.7131 395.668 87.8279 396.162 88.0574C396.655 88.2869 397.041 88.6213 397.319 89.0608C397.602 89.4954 397.744 90.03 397.744 90.6648ZM395.979 90.7234C395.979 90.406 395.915 90.1277 395.788 89.8884C395.666 89.6443 395.493 89.4539 395.268 89.3171C395.043 89.1804 394.777 89.1121 394.47 89.1121C394.162 89.1121 393.896 89.178 393.671 89.3098C393.447 89.4417 393.273 89.6272 393.151 89.8665C393.029 90.1057 392.968 90.3914 392.968 90.7234C392.968 91.0505 393.029 91.3362 393.151 91.5803C393.273 91.8196 393.447 92.0076 393.671 92.1443C393.901 92.281 394.169 92.3494 394.477 92.3494C394.785 92.3494 395.051 92.281 395.275 92.1443C395.5 92.0076 395.673 91.8196 395.795 91.5803C395.917 91.3362 395.979 91.0505 395.979 90.7234Z" fill="white"/>
<path d="M104.207 112.524H355.207V144.524C355.207 147.837 352.521 150.524 349.207 150.524H104.207V112.524Z" fill="#0077B6"/>
<path d="M325.34 131.565L323.934 131.221L324.513 125.86H330.262V127.354H325.978L325.685 129.969C325.851 129.871 326.08 129.776 326.373 129.683C326.666 129.585 327 129.536 327.376 129.536C327.879 129.536 328.329 129.619 328.724 129.785C329.125 129.947 329.464 130.183 329.742 130.496C330.021 130.803 330.233 131.179 330.379 131.624C330.526 132.063 330.599 132.559 330.599 133.111C330.599 133.604 330.526 134.065 330.379 134.495C330.238 134.925 330.023 135.303 329.735 135.63C329.447 135.957 329.083 136.214 328.644 136.399C328.209 136.58 327.694 136.67 327.098 136.67C326.654 136.67 326.227 136.607 325.816 136.48C325.411 136.348 325.047 136.155 324.725 135.901C324.403 135.642 324.144 135.325 323.949 134.949C323.753 134.568 323.641 134.131 323.612 133.638H325.34C325.384 133.985 325.479 134.28 325.626 134.524C325.777 134.763 325.978 134.947 326.227 135.073C326.476 135.2 326.764 135.264 327.091 135.264C327.389 135.264 327.645 135.213 327.86 135.11C328.075 135.003 328.253 134.851 328.395 134.656C328.541 134.456 328.648 134.221 328.717 133.953C328.79 133.684 328.827 133.386 328.827 133.059C328.827 132.747 328.785 132.461 328.702 132.202C328.624 131.944 328.504 131.719 328.343 131.529C328.187 131.338 327.989 131.192 327.75 131.089C327.511 130.982 327.235 130.928 326.922 130.928C326.502 130.928 326.18 130.989 325.956 131.111C325.736 131.233 325.531 131.385 325.34 131.565ZM338.963 130.298V132.041C338.963 132.876 338.88 133.589 338.714 134.18C338.553 134.766 338.319 135.242 338.011 135.608C337.704 135.974 337.335 136.243 336.905 136.414C336.48 136.585 336.004 136.67 335.477 136.67C335.057 136.67 334.667 136.616 334.305 136.509C333.949 136.402 333.626 136.233 333.338 136.004C333.05 135.774 332.804 135.479 332.599 135.117C332.398 134.751 332.242 134.314 332.13 133.806C332.022 133.299 331.969 132.71 331.969 132.041V130.298C331.969 129.458 332.052 128.75 332.218 128.174C332.384 127.593 332.621 127.122 332.928 126.76C333.236 126.394 333.602 126.128 334.027 125.962C334.457 125.796 334.935 125.713 335.462 125.713C335.887 125.713 336.278 125.767 336.634 125.874C336.996 125.977 337.318 126.14 337.601 126.365C337.889 126.59 338.133 126.883 338.333 127.244C338.539 127.6 338.695 128.032 338.802 128.54C338.91 129.043 338.963 129.629 338.963 130.298ZM337.198 132.29V130.034C337.198 129.61 337.174 129.236 337.125 128.914C337.076 128.587 337.003 128.311 336.905 128.086C336.812 127.857 336.695 127.671 336.554 127.53C336.412 127.383 336.251 127.278 336.07 127.215C335.89 127.146 335.687 127.112 335.462 127.112C335.189 127.112 334.945 127.166 334.73 127.273C334.515 127.376 334.334 127.542 334.188 127.771C334.042 128.001 333.929 128.303 333.851 128.679C333.778 129.051 333.741 129.502 333.741 130.034V132.29C333.741 132.72 333.766 133.098 333.814 133.426C333.863 133.753 333.937 134.033 334.034 134.268C334.132 134.497 334.249 134.688 334.386 134.839C334.527 134.986 334.688 135.093 334.869 135.161C335.055 135.23 335.257 135.264 335.477 135.264C335.755 135.264 336.002 135.21 336.217 135.103C336.432 134.995 336.612 134.824 336.759 134.59C336.905 134.351 337.015 134.041 337.088 133.66C337.162 133.279 337.198 132.823 337.198 132.29Z" fill="white"/>
<path d="M104.207 150.524H291.207V182.524C291.207 185.837 288.521 188.524 285.207 188.524H104.207V150.524Z" fill="#48CAE4"/>
<path d="M266.833 170.722V172.129H259.143L259.084 171.067L263.684 163.86H265.098L263.567 166.482L260.923 170.722H266.833ZM265.5 163.86V174.524H263.735V163.86H265.5ZM274.963 168.298V170.041C274.963 170.876 274.88 171.589 274.714 172.18C274.553 172.766 274.319 173.242 274.011 173.608C273.704 173.974 273.335 174.243 272.905 174.414C272.48 174.585 272.004 174.67 271.477 174.67C271.057 174.67 270.667 174.616 270.305 174.509C269.949 174.402 269.626 174.233 269.338 174.004C269.05 173.774 268.804 173.479 268.599 173.117C268.398 172.751 268.242 172.314 268.13 171.806C268.022 171.299 267.969 170.71 267.969 170.041V168.298C267.969 167.458 268.052 166.75 268.218 166.174C268.384 165.593 268.621 165.122 268.928 164.76C269.236 164.394 269.602 164.128 270.027 163.962C270.457 163.796 270.935 163.713 271.462 163.713C271.887 163.713 272.278 163.767 272.634 163.874C272.996 163.977 273.318 164.14 273.601 164.365C273.889 164.59 274.133 164.883 274.333 165.244C274.539 165.6 274.695 166.032 274.802 166.54C274.91 167.043 274.963 167.629 274.963 168.298ZM273.198 170.29V168.034C273.198 167.61 273.174 167.236 273.125 166.914C273.076 166.587 273.003 166.311 272.905 166.086C272.812 165.857 272.695 165.671 272.554 165.53C272.412 165.383 272.251 165.278 272.07 165.215C271.89 165.146 271.687 165.112 271.462 165.112C271.189 165.112 270.945 165.166 270.73 165.273C270.515 165.376 270.334 165.542 270.188 165.771C270.042 166.001 269.929 166.303 269.851 166.679C269.778 167.051 269.741 167.502 269.741 168.034V170.29C269.741 170.72 269.766 171.098 269.814 171.426C269.863 171.753 269.937 172.033 270.034 172.268C270.132 172.497 270.249 172.688 270.386 172.839C270.527 172.986 270.688 173.093 270.869 173.161C271.055 173.23 271.257 173.264 271.477 173.264C271.755 173.264 272.002 173.21 272.217 173.103C272.432 172.995 272.612 172.824 272.759 172.59C272.905 172.351 273.015 172.041 273.088 171.66C273.162 171.279 273.198 170.823 273.198 170.29Z" fill="black"/>
<path d="M104.207 188.524H205.207V220.524C205.207 223.837 202.521 226.524 199.207 226.524H110.207C106.893 226.524 104.207 223.837 104.207 220.524V188.524Z" fill="#CAF0F8"/>
<path d="M180.636 211.117V212.524H173.487V211.315L176.959 207.529C177.34 207.099 177.64 206.728 177.86 206.415C178.08 206.103 178.233 205.822 178.321 205.573C178.414 205.319 178.46 205.073 178.46 204.833C178.46 204.496 178.397 204.201 178.27 203.947C178.148 203.688 177.967 203.486 177.728 203.339C177.489 203.188 177.198 203.112 176.856 203.112C176.461 203.112 176.129 203.198 175.86 203.368C175.592 203.539 175.389 203.776 175.252 204.079C175.116 204.377 175.047 204.719 175.047 205.104H173.282C173.282 204.484 173.424 203.918 173.707 203.405C173.99 202.887 174.4 202.477 174.938 202.175C175.475 201.867 176.122 201.713 176.878 201.713C177.591 201.713 178.197 201.833 178.695 202.072C179.193 202.311 179.571 202.651 179.83 203.09C180.094 203.53 180.226 204.05 180.226 204.65C180.226 204.982 180.172 205.312 180.064 205.639C179.957 205.966 179.803 206.293 179.603 206.62C179.408 206.943 179.176 207.267 178.907 207.594C178.639 207.917 178.343 208.244 178.021 208.576L175.714 211.117H180.636ZM188.963 206.298V208.041C188.963 208.876 188.88 209.589 188.714 210.18C188.553 210.766 188.319 211.242 188.011 211.608C187.704 211.974 187.335 212.243 186.905 212.414C186.48 212.585 186.004 212.67 185.477 212.67C185.057 212.67 184.667 212.616 184.305 212.509C183.949 212.402 183.626 212.233 183.338 212.004C183.05 211.774 182.804 211.479 182.599 211.117C182.398 210.751 182.242 210.314 182.13 209.806C182.022 209.299 181.969 208.71 181.969 208.041V206.298C181.969 205.458 182.052 204.75 182.218 204.174C182.384 203.593 182.621 203.122 182.928 202.76C183.236 202.394 183.602 202.128 184.027 201.962C184.457 201.796 184.935 201.713 185.462 201.713C185.887 201.713 186.278 201.767 186.634 201.874C186.996 201.977 187.318 202.14 187.601 202.365C187.889 202.59 188.133 202.883 188.333 203.244C188.539 203.6 188.695 204.032 188.802 204.54C188.91 205.043 188.963 205.629 188.963 206.298ZM187.198 208.29V206.034C187.198 205.61 187.174 205.236 187.125 204.914C187.076 204.587 187.003 204.311 186.905 204.086C186.812 203.857 186.695 203.671 186.554 203.53C186.412 203.383 186.251 203.278 186.07 203.215C185.89 203.146 185.687 203.112 185.462 203.112C185.189 203.112 184.945 203.166 184.73 203.273C184.515 203.376 184.334 203.542 184.188 203.771C184.042 204.001 183.929 204.303 183.851 204.679C183.778 205.051 183.741 205.502 183.741 206.034V208.29C183.741 208.72 183.766 209.098 183.814 209.426C183.863 209.753 183.937 210.033 184.034 210.268C184.132 210.497 184.249 210.688 184.386 210.839C184.527 210.986 184.688 211.093 184.869 211.161C185.055 211.23 185.257 211.264 185.477 211.264C185.755 211.264 186.002 211.21 186.217 211.103C186.432 210.995 186.612 210.824 186.759 210.59C186.905 210.351 187.015 210.041 187.088 209.66C187.162 209.279 187.198 208.823 187.198 208.29Z" fill="black"/>
<path d="M29.341 40V22.9375H33.2433L38.9621 33.2383C39.0871 33.4805 39.1965 33.7148 39.2902 33.9414C39.3918 34.168 39.4855 34.4023 39.5715 34.6445H39.6535C39.6457 34.3789 39.6379 34.125 39.6301 33.8828C39.6301 33.6328 39.6301 33.375 39.6301 33.1094V22.9375H42.8293V40H38.8918L33.1965 29.7578C33.0715 29.5156 32.9582 29.2773 32.8566 29.043C32.7629 28.8086 32.6769 28.5703 32.5988 28.3281H32.5168C32.5324 28.5938 32.5402 28.8594 32.5402 29.125C32.548 29.3828 32.5519 29.6445 32.5519 29.9102V40H29.341ZM46.259 35.4531V28.0117H49.8683V35.4062C49.8683 36.2031 50.0285 36.7578 50.3488 37.0703C50.6769 37.375 51.1183 37.5273 51.673 37.5273C52.1808 37.5273 52.6301 37.3789 53.0207 37.082C53.4191 36.7852 53.716 36.4141 53.9113 35.9688V28.0117H57.5207V40H54.0637L54.0051 38.582H53.9465C53.6027 39.0977 53.1183 39.5039 52.4933 39.8008C51.8762 40.0977 51.1652 40.2461 50.3605 40.2461C49.1574 40.2461 48.173 39.8789 47.4074 39.1445C46.6418 38.4102 46.259 37.1797 46.259 35.4531ZM60.8098 40V28.0117H64.2551L64.3137 29.4531H64.3723C64.7394 28.9141 65.2277 28.4961 65.8371 28.1992C66.4543 27.9023 67.1223 27.7539 67.841 27.7539C68.6848 27.7539 69.4152 27.9336 70.0324 28.293C70.6574 28.6445 71.1066 29.1602 71.3801 29.8398H71.4269C71.841 29.168 72.4035 28.6523 73.1144 28.293C73.8332 27.9336 74.6027 27.7539 75.423 27.7539C76.6262 27.7539 77.5949 28.125 78.3293 28.8672C79.0637 29.6016 79.4308 30.8281 79.4308 32.5469V40H75.8215V32.5469C75.8215 31.8359 75.673 31.3164 75.3762 30.9883C75.0871 30.6602 74.6613 30.4961 74.0988 30.4961C73.5988 30.4883 73.1652 30.625 72.798 30.9062C72.4308 31.1875 72.1379 31.5742 71.9191 32.0664V40H68.3098V32.5703C68.3098 31.8516 68.1613 31.3281 67.8644 31C67.5754 30.6641 67.1379 30.4961 66.5519 30.4961C66.0598 30.4961 65.634 30.6328 65.2746 30.9062C64.9152 31.1797 64.6301 31.5664 64.4191 32.0664V40H60.8098ZM82.6144 40V22.2578H86.2121V29.2891C86.5949 28.8047 87.0754 28.4297 87.6535 28.1641C88.2316 27.8906 88.9035 27.7539 89.6691 27.7539C91.2082 27.7539 92.4348 28.3125 93.3488 29.4297C94.2629 30.5469 94.7199 31.9961 94.7199 33.7773V34.1523C94.7199 35.9414 94.259 37.4023 93.3371 38.5352C92.4152 39.668 91.1887 40.2344 89.6574 40.2344C88.884 40.2344 88.1769 40.0898 87.5363 39.8008C86.9035 39.5039 86.4504 39.1211 86.1769 38.6523H86.1183L86.0598 40H82.6144ZM86.2121 35.9102C86.3918 36.3555 86.6808 36.7461 87.0793 37.082C87.4777 37.418 87.9973 37.5859 88.6379 37.5859C89.4504 37.5859 90.0558 37.2812 90.4543 36.6719C90.8527 36.0547 91.0519 35.2578 91.0519 34.2812V33.6836C91.0519 32.707 90.8527 31.9219 90.4543 31.3281C90.0558 30.7266 89.4348 30.4258 88.591 30.4258C87.9894 30.4258 87.4855 30.5938 87.0793 30.9297C86.673 31.2656 86.384 31.6523 86.2121 32.0898V35.9102ZM96.7551 34.1758V33.8008C96.7551 31.9492 97.3215 30.4648 98.4543 29.3477C99.5949 28.2227 101.064 27.6602 102.861 27.6602C104.665 27.6602 106.071 28.1875 107.079 29.2422C108.095 30.2969 108.603 31.7539 108.603 33.6133V34.8203H99.0637V32.6992H105.064V32.4766C105.064 31.8438 104.872 31.3125 104.489 30.8828C104.114 30.4453 103.568 30.2266 102.849 30.2266C102.029 30.2266 101.404 30.5312 100.974 31.1406C100.552 31.7422 100.341 32.5469 100.341 33.5547V34.3281C100.341 35.375 100.571 36.2031 101.032 36.8125C101.493 37.4141 102.169 37.7148 103.06 37.7148C103.685 37.7148 104.22 37.5664 104.665 37.2695C105.118 36.9727 105.482 36.6172 105.755 36.2031L108.415 37.6445C108.032 38.4414 107.384 39.0898 106.47 39.5898C105.556 40.0898 104.439 40.3398 103.118 40.3398C101.126 40.3398 99.5676 39.7812 98.4426 38.6641C97.3176 37.5391 96.7551 36.043 96.7551 34.1758ZM111.13 40V28.0117H114.622L114.681 29.3828H114.728C114.986 28.9219 115.337 28.5273 115.782 28.1992C116.236 27.8633 116.743 27.6953 117.306 27.6953C117.486 27.6953 117.661 27.7148 117.833 27.7539C118.013 27.793 118.142 27.8281 118.22 27.8594V30.8477C118.079 30.8086 117.923 30.7812 117.751 30.7656C117.587 30.7422 117.404 30.7305 117.2 30.7305C116.677 30.7305 116.193 30.8906 115.747 31.2109C115.31 31.5234 114.982 31.9297 114.763 32.4297V40H111.13ZM126.122 34.1758V33.8008C126.122 31.9258 126.704 30.4336 127.868 29.3242C129.032 28.207 130.556 27.6484 132.439 27.6484C134.321 27.6484 135.845 28.207 137.009 29.3242C138.173 30.4336 138.755 31.9258 138.755 33.8008V34.1758C138.755 36.0586 138.173 37.5586 137.009 38.6758C135.845 39.7852 134.321 40.3398 132.439 40.3398C130.556 40.3398 129.032 39.7852 127.868 38.6758C126.704 37.5586 126.122 36.0586 126.122 34.1758ZM129.802 33.625V34.3516C129.802 35.4141 130.029 36.2305 130.482 36.8008C130.943 37.3711 131.595 37.6562 132.439 37.6562C133.29 37.6562 133.943 37.3711 134.396 36.8008C134.849 36.2305 135.075 35.4141 135.075 34.3516V33.625C135.075 32.5625 134.845 31.75 134.384 31.1875C133.923 30.6172 133.275 30.332 132.439 30.332C131.603 30.332 130.954 30.6172 130.493 31.1875C130.032 31.75 129.802 32.5625 129.802 33.625ZM141.892 40V26.8047C141.892 25.2109 142.341 24.0156 143.239 23.2188C144.146 22.4141 145.31 22.0117 146.732 22.0117C147.044 22.0117 147.337 22.0312 147.611 22.0703C147.892 22.1016 148.15 22.1484 148.384 22.2109L148.267 24.8477C148.118 24.8164 147.958 24.7891 147.786 24.7656C147.622 24.7344 147.446 24.7188 147.259 24.7188C146.689 24.7188 146.243 24.9062 145.923 25.2812C145.611 25.6562 145.454 26.2305 145.454 27.0039V28.9609L145.478 29.1836V40H141.892ZM140.228 30.625V28.0117H143.075H143.474H147.669V30.625H140.228ZM155.161 34.1758V33.8008C155.161 31.9023 155.724 30.4023 156.849 29.3008C157.982 28.1992 159.486 27.6484 161.361 27.6484C163.157 27.6484 164.529 28.082 165.474 28.9492C166.427 29.8086 166.935 30.8789 166.997 32.1602L167.009 32.3828H163.505V32.2305C163.505 31.668 163.325 31.2031 162.966 30.8359C162.614 30.4688 162.083 30.2852 161.372 30.2852C160.536 30.2852 159.904 30.5859 159.474 31.1875C159.052 31.7812 158.841 32.5938 158.841 33.625V34.3516C158.841 35.3828 159.048 36.2031 159.462 36.8125C159.876 37.4141 160.509 37.7148 161.361 37.7148C162.134 37.7148 162.685 37.5234 163.013 37.1406C163.341 36.75 163.505 36.2891 163.505 35.7578V35.6172H167.009V35.793C167.001 37.0586 166.509 38.1328 165.532 39.0156C164.556 39.8984 163.165 40.3398 161.361 40.3398C159.493 40.3398 157.993 39.7891 156.861 38.6875C155.728 37.5781 155.161 36.0742 155.161 34.1758ZM168.81 34.1758V33.8008C168.81 31.9258 169.392 30.4336 170.556 29.3242C171.72 28.207 173.243 27.6484 175.126 27.6484C177.009 27.6484 178.532 28.207 179.696 29.3242C180.861 30.4336 181.443 31.9258 181.443 33.8008V34.1758C181.443 36.0586 180.861 37.5586 179.696 38.6758C178.532 39.7852 177.009 40.3398 175.126 40.3398C173.243 40.3398 171.72 39.7852 170.556 38.6758C169.392 37.5586 168.81 36.0586 168.81 34.1758ZM172.489 33.625V34.3516C172.489 35.4141 172.716 36.2305 173.169 36.8008C173.63 37.3711 174.282 37.6562 175.126 37.6562C175.978 37.6562 176.63 37.3711 177.083 36.8008C177.536 36.2305 177.763 35.4141 177.763 34.3516V33.625C177.763 32.5625 177.532 31.75 177.071 31.1875C176.611 30.6172 175.962 30.332 175.126 30.332C174.29 30.332 173.642 30.6172 173.181 31.1875C172.72 31.75 172.489 32.5625 172.489 33.625ZM184.099 40V28.0117H187.544L187.603 29.4531H187.661C188.029 28.9141 188.517 28.4961 189.126 28.1992C189.743 27.9023 190.411 27.7539 191.13 27.7539C191.974 27.7539 192.704 27.9336 193.321 28.293C193.946 28.6445 194.396 29.1602 194.669 29.8398H194.716C195.13 29.168 195.693 28.6523 196.404 28.293C197.122 27.9336 197.892 27.7539 198.712 27.7539C199.915 27.7539 200.884 28.125 201.618 28.8672C202.353 29.6016 202.72 30.8281 202.72 32.5469V40H199.111V32.5469C199.111 31.8359 198.962 31.3164 198.665 30.9883C198.376 30.6602 197.95 30.4961 197.388 30.4961C196.888 30.4883 196.454 30.625 196.087 30.9062C195.72 31.1875 195.427 31.5742 195.208 32.0664V40H191.599V32.5703C191.599 31.8516 191.45 31.3281 191.154 31C190.864 30.6641 190.427 30.4961 189.841 30.4961C189.349 30.4961 188.923 30.6328 188.564 30.9062C188.204 31.1797 187.919 31.5664 187.708 32.0664V40H184.099ZM205.904 40V28.0117H209.349L209.407 29.4531H209.466C209.833 28.9141 210.321 28.4961 210.931 28.1992C211.548 27.9023 212.216 27.7539 212.935 27.7539C213.779 27.7539 214.509 27.9336 215.126 28.293C215.751 28.6445 216.2 29.1602 216.474 29.8398H216.521C216.935 29.168 217.497 28.6523 218.208 28.293C218.927 27.9336 219.696 27.7539 220.517 27.7539C221.72 27.7539 222.689 28.125 223.423 28.8672C224.157 29.6016 224.525 30.8281 224.525 32.5469V40H220.915V32.5469C220.915 31.8359 220.767 31.3164 220.47 30.9883C220.181 30.6602 219.755 30.4961 219.193 30.4961C218.693 30.4883 218.259 30.625 217.892 30.9062C217.525 31.1875 217.232 31.5742 217.013 32.0664V40H213.404V32.5703C213.404 31.8516 213.255 31.3281 212.958 31C212.669 30.6641 212.232 30.4961 211.646 30.4961C211.154 30.4961 210.728 30.6328 210.368 30.9062C210.009 31.1797 209.724 31.5664 209.513 32.0664V40H205.904ZM227.755 40V28.0117H231.376V40H227.755ZM227.474 24.4961C227.474 23.957 227.654 23.5039 228.013 23.1367C228.38 22.7695 228.9 22.5859 229.571 22.5859C230.243 22.5859 230.759 22.7695 231.118 23.1367C231.478 23.5039 231.657 23.957 231.657 24.4961C231.657 25.0352 231.474 25.4922 231.107 25.8672C230.747 26.2344 230.232 26.418 229.56 26.418C228.888 26.418 228.372 26.2344 228.013 25.8672C227.654 25.4922 227.474 25.0352 227.474 24.4961ZM233.341 30.625V28.0117H241.029V30.625H233.341ZM235.146 36.3906V29.1367L235.181 28.8438V24.9414H238.72V36.0977C238.72 36.707 238.821 37.1211 239.025 37.3398C239.228 37.5508 239.525 37.6562 239.915 37.6562C240.103 37.6562 240.286 37.6367 240.466 37.5977C240.646 37.5586 240.821 37.5039 240.993 37.4336V39.9766C240.798 40.0625 240.521 40.1406 240.161 40.2109C239.802 40.2812 239.392 40.3164 238.931 40.3164C237.775 40.3164 236.853 40.0039 236.165 39.3789C235.486 38.7461 235.146 37.75 235.146 36.3906ZM242.712 36.1914L246.157 36.2148V36.4141C246.157 36.9766 246.345 37.3828 246.72 37.6328C247.095 37.875 247.603 37.9961 248.243 37.9961C248.892 37.9961 249.376 37.8828 249.696 37.6562C250.025 37.4219 250.189 37.1055 250.189 36.707C250.189 36.3008 250.009 36 249.65 35.8047C249.29 35.6094 248.478 35.3828 247.212 35.125C245.767 34.8359 244.712 34.3867 244.048 33.7773C243.384 33.168 243.052 32.3711 243.052 31.3867C243.052 30.2227 243.521 29.3086 244.458 28.6445C245.396 27.9805 246.673 27.6484 248.29 27.6484C249.884 27.6484 251.154 27.9922 252.099 28.6797C253.052 29.3672 253.529 30.3125 253.529 31.5156V31.6797H250.095V31.4688C250.095 31.0078 249.943 30.6523 249.638 30.4023C249.333 30.1523 248.872 30.0273 248.255 30.0273C247.654 30.0273 247.216 30.1289 246.943 30.332C246.677 30.5273 246.544 30.7969 246.544 31.1406C246.544 31.4844 246.724 31.7578 247.083 31.9609C247.443 32.1562 248.263 32.3828 249.544 32.6406C250.997 32.9219 252.064 33.3594 252.743 33.9531C253.423 34.5391 253.763 35.3477 253.763 36.3789C253.763 37.6367 253.294 38.6133 252.357 39.3086C251.427 39.9961 250.068 40.3398 248.279 40.3398C246.513 40.3398 245.146 39.9922 244.177 39.2969C243.208 38.6016 242.72 37.6172 242.712 36.3438V36.1914Z" fill="white"/>
<path d="M430.99 32.6169V22.8772H421.25L425.255 26.8827L413.081 39.0573L409.075 35.0518V44.7915H418.815L414.809 40.7861L426.984 28.6114L430.99 32.6169Z" fill="white"/>
</g>
<defs>
<filter id="filter0_d_483_1049" x="0.1" y="1.16641" width="468.35" height="288.302" filterUnits="userSpaceOnUse" color-interpolation-filters="sRGB">
<feFlood flood-opacity="0" result="BackgroundImageFix"/>
<feColorMatrix in="SourceAlpha" type="matrix" values="0 0 0 0 0 0 0 0 0 0 0 0 0 0 0 0 0 0 127 0" result="hardAlpha"/>
<feOffset dx="6" dy="6"/>
<feGaussianBlur stdDeviation="4.95"/>
<feComposite in2="hardAlpha" operator="out"/>
<feColorMatrix type="matrix" values="0 0 0 0 0 0 0 0 0 0 0 0 0 0 0 0 0 0 0.25 0"/>
<feBlend mode="normal" in2="BackgroundImageFix" result="effect1_dropShadow_483_1049"/>
<feBlend mode="normal" in="SourceGraphic" in2="effect1_dropShadow_483_1049" result="shape"/>
</filter>
</defs>
</svg>
