<svg width="957" height="371" viewBox="0 0 957 371" fill="none" xmlns="http://www.w3.org/2000/svg">
    <g clip-path="url(#clip0_1145_17130)">
        <path d="M140.827 98.4676L233.948 130.584L281.224 311.009L46.5333 224.374L140.827 98.4676Z" fill="#F1502F"/>
        <path d="M136.714 214.452C144.686 212.197 149.32 203.907 147.066 195.936C144.811 187.964 136.521 183.33 128.55 185.584C120.578 187.839 115.944 196.129 118.198 204.1C120.453 212.072 128.743 216.706 136.714 214.452Z" fill="white" stroke="white"/>
        <path d="M181.91 152.246C189.881 149.991 194.516 141.701 192.261 133.73C190.007 125.758 181.717 121.124 173.745 123.378C165.774 125.633 161.139 133.923 163.394 141.895C165.648 149.866 173.938 154.501 181.91 152.246Z" fill="white" stroke="white"/>
        <path d="M251.337 284.154C259.308 281.899 263.943 273.609 261.688 265.638C259.434 257.666 251.144 253.032 243.172 255.286C235.201 257.541 230.566 265.831 232.821 273.802C235.075 281.774 243.365 286.408 251.337 284.154Z" fill="white" stroke="white"/>
        <path d="M222.204 181.15C230.176 178.895 234.81 170.605 232.556 162.633C230.301 154.662 222.011 150.027 214.04 152.282C206.068 154.537 201.434 162.826 203.688 170.798C205.943 178.77 214.233 183.404 222.204 181.15Z" fill="white" stroke="white"/>
        <path d="M247.255 269.72L67.5364 162.458" stroke="white" stroke-width="12"/>
        <path d="M177.827 137.812L132.632 200.018" stroke="white" stroke-width="9"/>
        <path d="M177.828 137.812L218.122 166.716" stroke="white" stroke-width="9" stroke-miterlimit="5"/>
    </g>
    <path d="M282 230.864C278.032 230.864 274.48 229.904 271.344 227.984C268.272 226 265.84 223.28 264.048 219.824C262.256 216.368 261.36 212.4 261.36 207.92C261.36 203.44 262.256 199.472 264.048 196.016C265.84 192.56 268.272 189.84 271.344 187.856C274.48 185.872 278.032 184.88 282 184.88C285.968 184.88 289.488 185.872 292.56 187.856C295.696 189.84 298.16 192.56 299.952 196.016C301.744 199.472 302.64 203.44 302.64 207.92C302.64 212.4 301.744 216.368 299.952 219.824C298.16 223.28 295.696 226 292.56 227.984C289.488 229.904 285.968 230.864 282 230.864ZM282 224.144C284.368 224.144 286.448 223.44 288.24 222.032C290.032 220.624 291.44 218.704 292.464 216.272C293.552 213.84 294.096 211.024 294.096 207.824C294.096 204.624 293.552 201.808 292.464 199.376C291.44 196.944 290.032 195.056 288.24 193.712C286.448 192.304 284.368 191.6 282 191.6C279.696 191.6 277.616 192.304 275.76 193.712C273.968 195.056 272.528 196.944 271.44 199.376C270.416 201.808 269.904 204.624 269.904 207.824C269.904 211.024 270.416 213.84 271.44 216.272C272.464 218.704 273.872 220.624 275.664 222.032C277.52 223.44 279.632 224.144 282 224.144ZM309.36 230V185.84H316.656V189.872C317.36 188.784 318.16 187.888 319.056 187.184C319.952 186.416 320.912 185.84 321.936 185.456C323.024 185.008 324.112 184.784 325.2 184.784C326.416 184.784 327.536 185.04 328.56 185.552C329.648 186 330.544 186.704 331.248 187.664C332.016 188.56 332.56 189.648 332.88 190.928C333.52 189.648 334.32 188.56 335.28 187.664C336.24 186.768 337.36 186.064 338.64 185.552C339.92 185.04 341.264 184.784 342.672 184.784C344.208 184.784 345.52 185.072 346.608 185.648C347.696 186.224 348.592 187.024 349.296 188.048C350.064 189.072 350.608 190.32 350.928 191.792C351.248 193.264 351.376 194.864 351.312 196.592V230H343.92V199.088C343.92 196.656 343.76 194.864 343.44 193.712C343.184 192.496 342.768 191.728 342.192 191.408C341.68 191.024 341.04 190.832 340.272 190.832C339.184 190.832 338.16 191.344 337.2 192.368C336.24 193.328 335.44 194.608 334.8 196.208C334.224 197.744 333.936 199.376 333.936 201.104V230H326.736V199.568C326.736 196.112 326.416 193.808 325.776 192.656C325.2 191.504 324.112 190.928 322.512 190.928C321.808 190.928 321.104 191.152 320.4 191.6C319.76 192.048 319.152 192.688 318.576 193.52C318.064 194.288 317.616 195.312 317.232 196.592C316.912 197.808 316.752 199.184 316.752 200.72V230H309.36ZM357.36 230V185.84H364.656V189.872C365.36 188.784 366.16 187.888 367.056 187.184C367.952 186.416 368.912 185.84 369.936 185.456C371.024 185.008 372.112 184.784 373.2 184.784C374.416 184.784 375.536 185.04 376.56 185.552C377.648 186 378.544 186.704 379.248 187.664C380.016 188.56 380.56 189.648 380.88 190.928C381.52 189.648 382.32 188.56 383.28 187.664C384.24 186.768 385.36 186.064 386.64 185.552C387.92 185.04 389.264 184.784 390.672 184.784C392.208 184.784 393.52 185.072 394.608 185.648C395.696 186.224 396.592 187.024 397.296 188.048C398.064 189.072 398.608 190.32 398.928 191.792C399.248 193.264 399.376 194.864 399.312 196.592V230H391.92V199.088C391.92 196.656 391.76 194.864 391.44 193.712C391.184 192.496 390.768 191.728 390.192 191.408C389.68 191.024 389.04 190.832 388.272 190.832C387.184 190.832 386.16 191.344 385.2 192.368C384.24 193.328 383.44 194.608 382.8 196.208C382.224 197.744 381.936 199.376 381.936 201.104V230H374.736V199.568C374.736 196.112 374.416 193.808 373.776 192.656C373.2 191.504 372.112 190.928 370.512 190.928C369.808 190.928 369.104 191.152 368.4 191.6C367.76 192.048 367.152 192.688 366.576 193.52C366.064 194.288 365.616 195.312 365.232 196.592C364.912 197.808 364.752 199.184 364.752 200.72V230H357.36ZM411.12 230V223.472H422.256V192.464H411.696V185.84H430.512V223.472H440.688V230H411.12ZM425.904 177.296C424.368 177.296 423.056 176.752 421.968 175.664C420.88 174.576 420.336 173.296 420.336 171.824C420.336 170.224 420.848 168.912 421.872 167.888C422.96 166.864 424.304 166.352 425.904 166.352C427.376 166.352 428.656 166.896 429.744 167.984C430.896 169.072 431.472 170.352 431.472 171.824C431.472 173.296 430.896 174.576 429.744 175.664C428.656 176.752 427.376 177.296 425.904 177.296ZM465.264 230.768C462.512 230.768 460.208 230.32 458.352 229.424C456.56 228.464 455.12 227.024 454.032 225.104C453.008 223.12 452.304 220.592 451.92 217.52C451.6 214.448 451.504 210.736 451.632 206.384L452.784 174.896L461.328 173.84L462.288 173.744L462.384 174.416C462.064 174.864 461.776 175.312 461.52 175.76C461.328 176.208 461.168 176.976 461.04 178.064L460.176 189.776L460.464 191.12L459.792 206.672C459.6 211.28 459.728 214.864 460.176 217.424C460.624 219.92 461.392 221.648 462.48 222.608C463.632 223.568 465.072 224.048 466.8 224.048C468.912 224.048 470.768 223.632 472.368 222.8C474.032 221.968 475.696 220.944 477.36 219.728L479.472 225.968C477.296 227.568 475.024 228.784 472.656 229.616C470.352 230.384 467.888 230.768 465.264 230.768ZM442.896 185.84H475.44V192.464H442.896V185.84ZM487.92 230V185.84H495.216V189.872C495.92 188.784 496.72 187.888 497.616 187.184C498.512 186.416 499.472 185.84 500.496 185.456C501.584 185.008 502.672 184.784 503.76 184.784C504.976 184.784 506.096 185.04 507.12 185.552C508.208 186 509.104 186.704 509.808 187.664C510.576 188.56 511.12 189.648 511.44 190.928C512.08 189.648 512.88 188.56 513.84 187.664C514.8 186.768 515.92 186.064 517.2 185.552C518.48 185.04 519.824 184.784 521.232 184.784C522.768 184.784 524.08 185.072 525.168 185.648C526.256 186.224 527.152 187.024 527.856 188.048C528.624 189.072 529.168 190.32 529.488 191.792C529.808 193.264 529.936 194.864 529.872 196.592V230H522.48V199.088C522.48 196.656 522.32 194.864 522 193.712C521.744 192.496 521.328 191.728 520.752 191.408C520.24 191.024 519.6 190.832 518.832 190.832C517.744 190.832 516.72 191.344 515.76 192.368C514.8 193.328 514 194.608 513.36 196.208C512.784 197.744 512.496 199.376 512.496 201.104V230H505.296V199.568C505.296 196.112 504.976 193.808 504.336 192.656C503.76 191.504 502.672 190.928 501.072 190.928C500.368 190.928 499.664 191.152 498.96 191.6C498.32 192.048 497.712 192.688 497.136 193.52C496.624 194.288 496.176 195.312 495.792 196.592C495.472 197.808 495.312 199.184 495.312 200.72V230H487.92ZM558.672 230.96C555.472 230.96 552.528 230.48 549.84 229.52C547.216 228.496 544.912 227.024 542.928 225.104C541.008 223.184 539.536 220.784 538.512 217.904C537.488 215.024 536.976 211.76 536.976 208.112C536.976 204.4 537.488 201.104 538.512 198.224C539.6 195.344 541.072 192.912 542.928 190.928C544.784 188.944 546.96 187.44 549.456 186.416C551.952 185.328 554.608 184.784 557.424 184.784C559.92 184.784 562.288 185.232 564.528 186.128C566.768 186.96 568.688 188.24 570.288 189.968C571.952 191.696 573.264 193.904 574.224 196.592C575.184 199.216 575.664 202.32 575.664 205.904C575.664 206.48 575.632 207.12 575.568 207.824C575.568 208.464 575.536 209.04 575.472 209.552H544.848C544.976 212.176 545.424 214.448 546.192 216.368C547.024 218.224 548.08 219.76 549.36 220.976C550.64 222.128 552.08 222.992 553.68 223.568C555.344 224.144 557.104 224.432 558.96 224.432C560.432 224.432 561.808 224.272 563.088 223.952C564.432 223.632 565.68 223.12 566.832 222.416C567.984 221.712 569.04 220.848 570 219.824L574.416 224.048C573.136 225.584 571.664 226.896 570 227.984C568.4 229.008 566.64 229.744 564.72 230.192C562.864 230.704 560.848 230.96 558.672 230.96ZM545.136 203.312H567.504C567.504 201.392 567.248 199.696 566.736 198.224C566.224 196.752 565.52 195.472 564.624 194.384C563.728 193.296 562.608 192.496 561.264 191.984C559.984 191.408 558.544 191.12 556.944 191.12C555.472 191.12 554.096 191.376 552.816 191.888C551.536 192.336 550.352 193.072 549.264 194.096C548.24 195.12 547.344 196.4 546.576 197.936C545.872 199.408 545.392 201.2 545.136 203.312ZM586.896 230V185.84H595.056V193.136C596.144 191.472 597.424 190.032 598.896 188.816C600.368 187.536 601.968 186.544 603.696 185.84C605.488 185.136 607.344 184.784 609.264 184.784C611.76 184.784 614 185.424 615.984 186.704C617.968 187.92 619.568 189.872 620.784 192.56C622 195.248 622.608 198.832 622.608 203.312V230H614.544V203.504C614.544 200.624 614.224 198.32 613.584 196.592C612.944 194.864 612.048 193.616 610.896 192.848C609.744 192.016 608.432 191.6 606.96 191.6C605.616 191.6 604.24 191.92 602.832 192.56C601.424 193.136 600.112 193.968 598.896 195.056C597.744 196.144 596.816 197.488 596.112 199.088C595.408 200.624 595.056 202.352 595.056 204.272V230H586.896ZM657.264 230.768C654.512 230.768 652.208 230.32 650.352 229.424C648.56 228.464 647.12 227.024 646.032 225.104C645.008 223.12 644.304 220.592 643.92 217.52C643.6 214.448 643.504 210.736 643.632 206.384L644.784 174.896L653.328 173.84L654.288 173.744L654.384 174.416C654.064 174.864 653.776 175.312 653.52 175.76C653.328 176.208 653.168 176.976 653.04 178.064L652.176 189.776L652.464 191.12L651.792 206.672C651.6 211.28 651.728 214.864 652.176 217.424C652.624 219.92 653.392 221.648 654.48 222.608C655.632 223.568 657.072 224.048 658.8 224.048C660.912 224.048 662.768 223.632 664.368 222.8C666.032 221.968 667.696 220.944 669.36 219.728L671.472 225.968C669.296 227.568 667.024 228.784 664.656 229.616C662.352 230.384 659.888 230.768 657.264 230.768ZM634.896 185.84H667.44V192.464H634.896V185.84Z" fill="#C4C4C4"/>
    <defs>
        <clipPath id="clip0_1145_17130">
            <rect width="300" height="300" fill="white" transform="translate(0 81.646) rotate(-15.7925)"/>
        </clipPath>
    </defs>
</svg>