<svg width="651" height="290" viewBox="0 0 651 290" fill="none" xmlns="http://www.w3.org/2000/svg">
    <path d="M120.282 22.008L213.403 54.1241L260.679 234.549L25.9883 147.914L120.282 22.008Z" fill="#F1502F"/>
    <path d="M116.169 137.992C124.141 135.738 128.776 127.448 126.521 119.476C124.266 111.505 115.976 106.87 108.005 109.125C100.033 111.379 95.3988 119.669 97.6533 127.641C99.9079 135.612 108.198 140.247 116.169 137.992Z" fill="white" stroke="white"/>
    <path d="M161.365 75.7864C169.336 73.5318 173.971 65.2419 171.716 57.2703C169.462 49.2987 161.172 44.6642 153.2 46.9188C145.229 49.1734 140.594 57.4633 142.849 65.4349C145.103 73.4065 153.393 78.041 161.365 75.7864Z" fill="white" stroke="white"/>
    <path d="M230.792 207.694C238.763 205.44 243.398 197.15 241.143 189.178C238.889 181.206 230.599 176.572 222.627 178.826C214.656 181.081 210.021 189.371 212.276 197.343C214.53 205.314 222.82 209.949 230.792 207.694Z" fill="white" stroke="white"/>
    <path d="M201.659 104.69C209.631 102.435 214.265 94.1454 212.011 86.1738C209.756 78.2023 201.466 73.5677 193.495 75.8223C185.523 78.0769 180.888 86.3669 183.143 94.3385C185.398 102.31 193.688 106.945 201.659 104.69Z" fill="white" stroke="white"/>
    <path d="M226.71 193.26L46.9915 85.9979" stroke="white" stroke-width="12"/>
    <path d="M157.282 61.3525L112.087 123.558" stroke="white" stroke-width="9"/>
    <path d="M157.282 61.3524L197.577 90.256" stroke="white" stroke-width="9" stroke-miterlimit="5"/>
    <path d="M261.455 154.404C257.487 154.404 253.935 153.444 250.799 151.524C247.727 149.54 245.295 146.82 243.503 143.364C241.711 139.908 240.815 135.94 240.815 131.46C240.815 126.98 241.711 123.012 243.503 119.556C245.295 116.1 247.727 113.38 250.799 111.396C253.935 109.412 257.487 108.42 261.455 108.42C265.423 108.42 268.943 109.412 272.015 111.396C275.151 113.38 277.615 116.1 279.407 119.556C281.199 123.012 282.095 126.98 282.095 131.46C282.095 135.94 281.199 139.908 279.407 143.364C277.615 146.82 275.151 149.54 272.015 151.524C268.943 153.444 265.423 154.404 261.455 154.404ZM261.455 147.684C263.823 147.684 265.903 146.98 267.695 145.572C269.487 144.164 270.895 142.244 271.919 139.812C273.007 137.38 273.551 134.564 273.551 131.364C273.551 128.164 273.007 125.348 271.919 122.916C270.895 120.484 269.487 118.596 267.695 117.252C265.903 115.844 263.823 115.14 261.455 115.14C259.151 115.14 257.071 115.844 255.215 117.252C253.423 118.596 251.983 120.484 250.895 122.916C249.871 125.348 249.359 128.164 249.359 131.364C249.359 134.564 249.871 137.38 250.895 139.812C251.919 142.244 253.327 144.164 255.119 145.572C256.975 146.98 259.087 147.684 261.455 147.684ZM288.815 153.54V109.38H296.111V113.412C296.815 112.324 297.615 111.428 298.511 110.724C299.407 109.956 300.367 109.38 301.391 108.996C302.479 108.548 303.567 108.324 304.655 108.324C305.871 108.324 306.991 108.58 308.015 109.092C309.103 109.54 309.999 110.244 310.703 111.204C311.471 112.1 312.015 113.188 312.335 114.468C312.975 113.188 313.775 112.1 314.735 111.204C315.695 110.308 316.815 109.604 318.095 109.092C319.375 108.58 320.719 108.324 322.127 108.324C323.663 108.324 324.975 108.612 326.063 109.188C327.151 109.764 328.047 110.564 328.751 111.588C329.519 112.612 330.063 113.86 330.383 115.332C330.703 116.804 330.831 118.404 330.767 120.132V153.54H323.375V122.628C323.375 120.196 323.215 118.404 322.895 117.252C322.639 116.036 322.223 115.268 321.647 114.948C321.135 114.564 320.495 114.372 319.727 114.372C318.639 114.372 317.615 114.884 316.655 115.908C315.695 116.868 314.895 118.148 314.255 119.748C313.679 121.284 313.391 122.916 313.391 124.644V153.54H306.191V123.108C306.191 119.652 305.871 117.348 305.231 116.196C304.655 115.044 303.567 114.468 301.967 114.468C301.263 114.468 300.559 114.692 299.855 115.14C299.215 115.588 298.607 116.228 298.031 117.06C297.519 117.828 297.071 118.852 296.687 120.132C296.367 121.348 296.207 122.724 296.207 124.26V153.54H288.815ZM336.815 153.54V109.38H344.111V113.412C344.815 112.324 345.615 111.428 346.511 110.724C347.407 109.956 348.367 109.38 349.391 108.996C350.479 108.548 351.567 108.324 352.655 108.324C353.871 108.324 354.991 108.58 356.015 109.092C357.103 109.54 357.999 110.244 358.703 111.204C359.471 112.1 360.015 113.188 360.335 114.468C360.975 113.188 361.775 112.1 362.735 111.204C363.695 110.308 364.815 109.604 366.095 109.092C367.375 108.58 368.719 108.324 370.127 108.324C371.663 108.324 372.975 108.612 374.063 109.188C375.151 109.764 376.047 110.564 376.751 111.588C377.519 112.612 378.063 113.86 378.383 115.332C378.703 116.804 378.831 118.404 378.767 120.132V153.54H371.375V122.628C371.375 120.196 371.215 118.404 370.895 117.252C370.639 116.036 370.223 115.268 369.647 114.948C369.135 114.564 368.495 114.372 367.727 114.372C366.639 114.372 365.615 114.884 364.655 115.908C363.695 116.868 362.895 118.148 362.255 119.748C361.679 121.284 361.391 122.916 361.391 124.644V153.54H354.191V123.108C354.191 119.652 353.871 117.348 353.231 116.196C352.655 115.044 351.567 114.468 349.967 114.468C349.263 114.468 348.559 114.692 347.855 115.14C347.215 115.588 346.607 116.228 346.031 117.06C345.519 117.828 345.071 118.852 344.687 120.132C344.367 121.348 344.207 122.724 344.207 124.26V153.54H336.815ZM390.575 153.54V147.012H401.711V116.004H391.151V109.38H409.967V147.012H420.143V153.54H390.575ZM405.359 100.836C403.823 100.836 402.511 100.292 401.423 99.2044C400.335 98.1164 399.791 96.8364 399.791 95.3644C399.791 93.7644 400.303 92.4524 401.327 91.4284C402.415 90.4044 403.759 89.8924 405.359 89.8924C406.831 89.8924 408.111 90.4364 409.199 91.5244C410.351 92.6124 410.927 93.8924 410.927 95.3644C410.927 96.8364 410.351 98.1164 409.199 99.2044C408.111 100.292 406.831 100.836 405.359 100.836ZM444.719 154.308C441.967 154.308 439.663 153.86 437.807 152.964C436.015 152.004 434.575 150.564 433.487 148.644C432.463 146.66 431.759 144.132 431.375 141.06C431.055 137.988 430.959 134.276 431.087 129.924L432.239 98.4364L440.783 97.3804L441.743 97.2844L441.839 97.9564C441.519 98.4044 441.231 98.8524 440.975 99.3004C440.783 99.7484 440.623 100.516 440.495 101.604L439.631 113.316L439.919 114.66L439.247 130.212C439.055 134.82 439.183 138.404 439.631 140.964C440.079 143.46 440.847 145.188 441.935 146.148C443.087 147.108 444.527 147.588 446.255 147.588C448.367 147.588 450.223 147.172 451.823 146.34C453.487 145.508 455.151 144.484 456.815 143.268L458.927 149.508C456.751 151.108 454.479 152.324 452.111 153.156C449.807 153.924 447.343 154.308 444.719 154.308ZM422.351 109.38H454.895V116.004H422.351V109.38ZM467.375 153.54V109.38H474.671V113.412C475.375 112.324 476.175 111.428 477.071 110.724C477.967 109.956 478.927 109.38 479.951 108.996C481.039 108.548 482.127 108.324 483.215 108.324C484.431 108.324 485.551 108.58 486.575 109.092C487.663 109.54 488.559 110.244 489.263 111.204C490.031 112.1 490.575 113.188 490.895 114.468C491.535 113.188 492.335 112.1 493.295 111.204C494.255 110.308 495.375 109.604 496.655 109.092C497.935 108.58 499.279 108.324 500.687 108.324C502.223 108.324 503.535 108.612 504.623 109.188C505.711 109.764 506.607 110.564 507.311 111.588C508.079 112.612 508.623 113.86 508.943 115.332C509.263 116.804 509.391 118.404 509.327 120.132V153.54H501.935V122.628C501.935 120.196 501.775 118.404 501.455 117.252C501.199 116.036 500.783 115.268 500.207 114.948C499.695 114.564 499.055 114.372 498.287 114.372C497.199 114.372 496.175 114.884 495.215 115.908C494.255 116.868 493.455 118.148 492.815 119.748C492.239 121.284 491.951 122.916 491.951 124.644V153.54H484.751V123.108C484.751 119.652 484.431 117.348 483.791 116.196C483.215 115.044 482.127 114.468 480.527 114.468C479.823 114.468 479.119 114.692 478.415 115.14C477.775 115.588 477.167 116.228 476.591 117.06C476.079 117.828 475.631 118.852 475.247 120.132C474.927 121.348 474.767 122.724 474.767 124.26V153.54H467.375ZM538.127 154.5C534.927 154.5 531.983 154.02 529.295 153.06C526.671 152.036 524.367 150.564 522.383 148.644C520.463 146.724 518.991 144.324 517.967 141.444C516.943 138.564 516.431 135.3 516.431 131.652C516.431 127.94 516.943 124.644 517.967 121.764C519.055 118.884 520.527 116.452 522.383 114.468C524.239 112.484 526.415 110.98 528.911 109.956C531.407 108.868 534.063 108.324 536.879 108.324C539.375 108.324 541.743 108.772 543.983 109.668C546.223 110.5 548.143 111.78 549.743 113.508C551.407 115.236 552.719 117.444 553.679 120.132C554.639 122.756 555.119 125.86 555.119 129.444C555.119 130.02 555.087 130.66 555.023 131.364C555.023 132.004 554.991 132.58 554.927 133.092H524.303C524.431 135.716 524.879 137.988 525.647 139.908C526.479 141.764 527.535 143.3 528.815 144.516C530.095 145.668 531.535 146.532 533.135 147.108C534.799 147.684 536.559 147.972 538.415 147.972C539.887 147.972 541.263 147.812 542.543 147.492C543.887 147.172 545.135 146.66 546.287 145.956C547.439 145.252 548.495 144.388 549.455 143.364L553.871 147.588C552.591 149.124 551.119 150.436 549.455 151.524C547.855 152.548 546.095 153.284 544.175 153.732C542.319 154.244 540.303 154.5 538.127 154.5ZM524.591 126.852H546.959C546.959 124.932 546.703 123.236 546.191 121.764C545.679 120.292 544.975 119.012 544.079 117.924C543.183 116.836 542.063 116.036 540.719 115.524C539.439 114.948 537.999 114.66 536.399 114.66C534.927 114.66 533.551 114.916 532.271 115.428C530.991 115.876 529.807 116.612 528.719 117.636C527.695 118.66 526.799 119.94 526.031 121.476C525.327 122.948 524.847 124.74 524.591 126.852ZM566.351 153.54V109.38H574.511V116.676C575.599 115.012 576.879 113.572 578.351 112.356C579.823 111.076 581.423 110.084 583.151 109.38C584.943 108.676 586.799 108.324 588.719 108.324C591.215 108.324 593.455 108.964 595.439 110.244C597.423 111.46 599.023 113.412 600.239 116.1C601.455 118.788 602.063 122.372 602.063 126.852V153.54H593.999V127.044C593.999 124.164 593.679 121.86 593.039 120.132C592.399 118.404 591.503 117.156 590.351 116.388C589.199 115.556 587.887 115.14 586.415 115.14C585.071 115.14 583.695 115.46 582.287 116.1C580.879 116.676 579.567 117.508 578.351 118.596C577.199 119.684 576.271 121.028 575.567 122.628C574.863 124.164 574.511 125.892 574.511 127.812V153.54H566.351ZM636.719 154.308C633.967 154.308 631.663 153.86 629.807 152.964C628.015 152.004 626.575 150.564 625.487 148.644C624.463 146.66 623.759 144.132 623.375 141.06C623.055 137.988 622.959 134.276 623.087 129.924L624.239 98.4364L632.783 97.3804L633.743 97.2844L633.839 97.9564C633.519 98.4044 633.231 98.8524 632.975 99.3004C632.783 99.7484 632.623 100.516 632.495 101.604L631.631 113.316L631.919 114.66L631.247 130.212C631.055 134.82 631.183 138.404 631.631 140.964C632.079 143.46 632.847 145.188 633.935 146.148C635.087 147.108 636.527 147.588 638.255 147.588C640.367 147.588 642.223 147.172 643.823 146.34C645.487 145.508 647.151 144.484 648.815 143.268L650.927 149.508C648.751 151.108 646.479 152.324 644.111 153.156C641.807 153.924 639.343 154.308 636.719 154.308ZM614.351 109.38H646.895V116.004H614.351V109.38Z" fill="#353531"/>
</svg>
